<?xml version="1.0" encoding="utf-8" ?>
<svg baseProfile="full" height="743" version="1.1" width="859" xmlns="http://www.w3.org/2000/svg" xmlns:ev="http://www.w3.org/2001/xml-events" xmlns:xlink="http://www.w3.org/1999/xlink"><defs /><polygon fill="black" points="852,7 851,8 850,8 849,9 848,9 847,10 846,10 845,11 844,11 843,12 842,12 841,13 840,13 839,14 838,14 837,15 836,15 835,16 834,16 833,17 832,17 831,18 830,18 829,19 827,19 825,21 824,21 823,22 821,22 820,23 819,23 818,24 817,24 816,25 815,25 814,26 813,26 812,27 811,27 810,28 809,28 808,29 807,29 806,30 805,30 804,31 803,31 802,32 801,32 800,33 799,33 798,34 797,34 796,35 795,35 794,36 793,36 792,37 791,37 790,38 789,38 788,39 787,39 786,40 785,40 784,41 783,41 782,42 780,42 779,43 778,43 777,44 776,44 775,45 774,45 773,46 772,46 771,47 770,47 769,48 768,48 767,49 766,49 765,50 764,50 763,51 762,51 761,52 760,52 759,53 758,53 757,54 756,54 755,55 754,55 753,56 752,56 751,57 750,57 749,58 748,58 747,59 746,59 745,60 744,60 743,61 741,61 740,62 739,62 738,63 737,63 736,64 735,64 734,65 733,65 732,66 731,66 730,67 729,67 728,68 727,68 726,69 725,69 724,70 723,70 722,71 721,71 720,72 719,72 718,73 717,73 716,74 715,74 714,75 713,75 712,76 711,76 710,77 709,77 708,78 707,78 706,79 705,79 704,80 703,80 702,81 701,81 700,82 699,82 698,83 697,83 696,84 694,84 693,85 692,85 691,86 690,86 689,87 688,87 687,88 686,88 685,89 684,89 683,90 682,90 681,91 680,91 679,92 678,92 677,93 676,93 675,94 674,94 673,95 672,95 671,96 670,96 669,97 668,97 667,98 666,98 665,99 664,99 663,100 662,100 661,101 660,101 659,102 658,102 657,103 655,103 654,104 653,104 652,105 651,105 650,106 649,106 648,107 647,107 646,108 645,108 644,109 643,109 642,110 641,110 640,111 638,109 638,108 628,98 628,97 617,86 616,86 607,77 606,77 601,72 600,72 596,68 595,68 592,65 591,65 588,62 587,62 584,59 583,59 581,57 580,57 578,55 577,55 575,53 574,53 572,51 571,51 570,50 569,50 567,48 566,48 564,46 563,46 562,45 561,45 560,44 559,44 557,42 556,42 555,41 554,41 553,40 552,40 551,39 550,39 549,38 548,38 546,36 545,36 544,35 543,35 542,34 541,34 540,33 538,33 537,32 536,32 535,31 534,31 533,30 532,30 531,29 530,29 529,28 527,28 526,27 525,27 524,26 522,26 521,25 520,25 519,24 517,24 516,23 515,23 514,22 512,22 511,21 509,21 508,20 506,20 505,19 503,19 502,18 500,18 499,17 497,17 496,16 494,16 493,15 490,15 489,14 486,14 485,13 483,13 482,12 479,12 478,11 475,11 474,10 472,10 473,10 474,11 476,11 477,12 479,12 480,13 481,13 482,14 484,14 485,15 486,15 487,16 489,16 490,17 491,17 492,18 493,18 494,19 495,19 496,20 497,20 498,21 499,21 500,22 502,22 503,23 504,23 506,25 507,25 508,26 509,26 510,27 511,27 512,28 513,28 514,29 515,29 517,31 518,31 519,32 520,32 522,34 523,34 525,36 526,36 527,37 528,37 530,39 531,39 534,42 535,42 537,44 538,44 541,47 542,47 545,50 546,50 550,54 551,54 558,61 559,61 577,79 577,80 584,87 584,88 589,93 589,94 592,97 592,98 595,101 595,102 597,104 597,105 600,108 600,109 602,111 602,112 603,113 603,114 605,116 605,117 607,119 607,120 608,121 608,122 610,124 610,125 609,126 608,126 607,127 606,127 605,128 604,128 603,129 602,129 601,130 600,130 599,131 598,131 597,132 596,132 595,133 594,133 593,134 592,134 591,135 590,135 589,136 588,136 587,137 586,137 585,138 584,138 583,139 582,139 581,140 580,140 579,141 578,141 577,142 576,142 575,143 574,143 573,144 572,144 571,145 569,145 568,146 567,146 566,147 565,147 564,148 563,148 562,149 561,149 560,150 559,150 558,151 557,151 556,152 555,152 554,153 553,153 552,154 551,154 550,155 549,155 548,156 547,156 546,157 545,157 544,158 543,158 542,159 541,159 540,160 539,160 538,161 537,161 536,162 535,162 534,163 533,163 532,164 531,164 530,165 528,165 527,166 526,166 525,167 524,167 523,168 522,168 521,169 519,169 518,168 516,168 515,167 513,167 512,166 510,166 509,165 507,165 506,164 504,164 503,163 501,163 500,162 498,162 497,161 495,161 494,160 492,160 491,159 490,159 490,160 492,162 492,163 494,165 494,166 496,168 496,169 498,171 498,172 500,174 500,175 502,177 502,178 504,180 504,181 505,182 505,183 507,185 507,186 509,188 509,189 511,191 511,192 513,194 513,195 515,197 515,198 517,200 517,201 519,203 519,204 521,206 521,207 523,209 523,210 525,212 525,213 527,215 527,216 528,217 528,218 530,220 530,221 532,223 532,224 534,226 534,227 536,229 536,230 538,232 538,233 540,235 540,236 542,238 542,239 544,241 544,242 546,244 546,245 548,247 548,248 549,249 549,246 548,245 548,238 547,237 547,229 546,228 546,221 545,220 545,212 544,211 544,206 547,203 548,203 549,202 550,202 552,200 553,200 555,198 556,198 558,196 559,196 560,195 561,195 563,193 564,193 566,191 567,191 569,189 570,189 572,187 573,187 575,185 576,185 577,184 578,184 580,182 581,182 583,180 584,180 586,178 587,178 589,176 590,176 591,175 592,175 594,173 595,173 597,171 598,171 600,169 601,169 603,167 604,167 606,165 607,165 608,164 609,164 611,162 612,162 614,160 615,160 617,158 618,158 619,157 620,157 622,155 623,155 624,154 625,155 625,156 626,157 626,159 627,160 627,162 628,163 628,164 629,165 629,167 630,168 630,170 631,171 631,173 632,174 632,177 633,178 633,180 634,181 634,184 635,185 635,187 636,188 636,191 637,192 637,196 638,197 638,201 639,202 639,206 640,207 640,212 641,213 641,219 642,220 642,229 643,230 643,272 642,273 642,281 641,282 641,289 640,290 640,295 639,296 639,300 638,301 638,305 637,306 637,309 636,310 636,313 635,314 635,317 634,318 634,321 633,322 633,324 632,325 632,327 631,328 631,331 630,332 630,333 629,334 629,336 628,337 628,339 627,340 627,342 626,343 626,344 625,345 625,347 624,348 624,349 623,350 623,352 622,353 622,354 621,355 621,356 620,357 620,358 619,359 619,360 618,361 618,362 617,363 617,364 616,365 616,366 615,367 615,368 614,369 614,370 613,371 613,372 612,373 612,374 611,375 611,376 609,378 609,379 608,380 608,381 606,383 606,384 605,385 605,386 603,388 603,389 601,391 601,392 599,394 599,395 597,397 597,398 594,401 594,402 591,405 591,406 588,409 588,410 583,415 583,416 580,419 579,418 579,417 577,415 577,414 575,412 575,411 573,409 573,408 571,406 571,405 569,403 569,402 567,400 567,399 564,396 564,395 562,393 562,392 560,390 560,389 558,387 558,386 556,384 556,383 554,381 554,380 553,379 553,378 554,377 554,376 555,375 555,374 556,373 556,372 557,371 557,370 558,369 558,368 559,367 559,366 560,365 560,364 561,363 561,362 562,361 562,360 563,359 563,358 564,357 564,356 565,355 565,354 566,353 566,352 567,351 567,349 568,348 568,347 569,346 569,345 570,344 569,345 568,345 567,346 566,346 564,348 563,348 562,349 561,349 559,351 558,351 557,352 556,352 554,354 553,354 552,355 551,355 549,357 548,357 547,358 546,358 544,360 543,360 542,361 541,361 539,363 538,363 537,364 536,364 535,365 534,365 532,367 531,367 530,368 529,368 527,370 526,370 525,371 524,371 522,373 521,373 520,374 519,374 517,376 516,376 515,377 514,377 512,379 511,379 510,380 509,380 508,381 507,381 505,383 504,383 502,385 501,385 500,386 499,386 498,387 497,387 495,389 494,389 493,390 492,390 490,392 489,392 488,393 487,393 489,393 490,394 497,394 498,395 504,395 505,396 511,396 512,397 515,397 519,401 519,402 525,408 525,409 530,414 530,415 536,421 536,422 542,428 542,429 547,434 547,435 553,441 553,442 555,444 553,446 552,446 548,450 547,450 543,454 542,454 539,457 538,457 536,459 535,459 532,462 531,462 529,464 528,464 526,466 525,466 524,467 523,467 521,469 520,469 518,471 517,471 516,472 515,472 514,473 513,473 511,475 510,475 509,476 508,476 507,477 506,477 505,478 504,478 503,479 502,479 501,480 500,480 499,481 498,481 497,482 496,482 495,483 494,483 493,484 491,484 490,485 489,485 488,486 487,486 486,487 484,487 483,488 482,488 481,489 479,489 478,490 476,490 475,491 474,491 473,492 471,492 470,493 468,493 467,494 465,494 464,495 462,495 461,496 458,496 457,497 454,497 453,498 451,498 450,499 446,499 445,500 442,500 441,501 437,501 436,502 431,502 430,503 425,503 424,504 417,504 416,505 406,505 405,506 373,506 371,504 371,503 372,502 372,497 373,496 373,490 374,489 374,483 375,482 375,477 376,476 376,471 377,470 377,464 378,463 378,458 381,455 382,455 383,454 384,454 386,452 387,452 388,451 389,451 391,449 392,449 393,448 394,448 396,446 397,446 398,445 399,445 400,444 399,443 397,443 396,442 393,442 392,441 390,441 389,440 387,440 386,439 384,439 383,438 381,438 380,437 377,437 376,436 374,436 373,435 371,435 370,434 368,434 367,433 365,433 364,432 361,432 360,431 358,431 357,430 355,430 354,429 352,429 351,428 349,428 348,427 345,427 344,426 342,426 341,425 339,425 338,424 336,424 335,423 332,423 331,422 329,422 328,421 326,421 325,420 323,420 322,419 320,419 319,418 318,418 318,419 322,423 322,424 325,427 325,428 328,431 328,432 331,435 331,436 333,438 333,479 334,480 334,499 333,500 331,500 330,499 327,499 326,498 323,498 322,497 320,497 319,496 316,496 315,495 313,495 312,494 310,494 309,493 307,493 306,492 304,492 303,491 301,491 300,490 298,490 297,489 296,489 295,488 293,488 292,487 291,487 290,486 288,486 287,485 286,485 285,484 284,484 283,483 282,483 281,482 280,482 279,481 277,481 276,480 275,480 274,479 273,479 271,477 270,477 269,476 268,476 267,475 266,475 265,474 264,474 263,473 262,473 260,471 259,471 258,470 257,470 255,468 254,468 253,467 252,467 250,465 249,465 247,463 246,463 244,461 243,461 240,458 239,458 237,456 236,456 232,452 231,452 227,448 226,448 220,442 219,442 197,420 197,419 191,413 191,412 188,409 188,408 192,404 193,404 196,401 197,401 199,399 200,399 203,396 204,396 207,393 208,393 210,391 211,391 214,388 215,388 218,385 219,385 222,382 223,382 225,380 226,380 229,377 230,377 233,374 234,374 236,372 237,372 240,369 241,369 244,366 245,366 247,364 248,364 251,361 252,361 255,358 256,358 258,356 259,356 262,353 263,353 266,350 267,350 269,348 270,348 273,345 274,345 277,342 278,342 281,339 282,339 284,337 285,337 288,334 289,334 292,331 293,331 295,329 296,329 299,326 300,326 303,323 304,323 306,321 307,321 310,318 311,318 314,315 315,315 317,313 318,313 321,310 322,310 325,307 326,307 329,304 330,304 332,302 333,302 336,299 337,299 340,296 341,296 343,294 344,294 347,291 348,291 351,288 352,288 354,286 355,286 358,283 359,283 362,280 363,280 365,278 366,278 369,275 370,275 373,272 374,272 377,269 378,269 380,267 381,267 384,264 385,264 388,261 389,261 391,259 392,259 393,258 392,258 391,259 390,259 388,261 387,261 386,262 385,262 384,263 383,263 382,264 381,264 380,265 379,265 378,266 377,266 376,267 375,267 374,268 373,268 372,269 371,269 370,270 369,270 368,271 367,271 366,272 365,272 364,273 363,273 362,274 361,274 360,275 359,275 358,276 357,276 356,277 355,277 354,278 353,278 352,279 351,279 350,280 349,280 348,281 347,281 346,282 345,282 344,283 343,283 342,284 341,284 340,285 339,285 338,286 337,286 336,287 335,287 334,288 333,288 332,289 331,289 330,290 329,290 328,291 327,291 326,292 325,292 324,293 323,293 322,294 321,294 320,295 319,295 318,296 317,296 316,297 315,297 314,298 313,298 312,299 311,299 310,300 309,300 308,301 307,301 306,302 305,302 304,303 303,303 302,304 301,304 300,305 299,305 298,306 297,306 296,307 295,307 294,308 293,308 292,309 291,309 290,310 289,310 288,311 287,311 286,312 285,312 284,313 283,313 282,314 281,314 280,315 279,315 278,316 277,316 276,317 275,317 274,318 273,318 272,319 271,319 270,320 269,320 268,321 267,321 266,322 265,322 264,323 263,323 262,324 261,324 260,325 259,325 258,326 257,326 256,327 255,327 254,328 253,328 252,329 251,329 250,330 249,330 248,331 247,331 246,332 245,332 244,333 243,333 242,334 241,334 240,335 239,335 238,336 237,336 236,337 235,337 234,338 233,338 232,339 231,339 230,340 229,340 228,341 227,341 226,342 225,342 224,343 223,343 222,344 221,344 220,345 219,345 218,346 217,346 216,347 215,347 214,348 213,348 212,349 211,349 210,350 209,350 208,351 207,351 206,352 205,352 204,353 203,353 202,354 201,354 200,355 199,355 198,356 197,356 196,357 195,357 194,358 193,358 192,359 191,359 190,360 189,360 188,361 187,361 186,362 185,362 184,363 183,363 182,364 181,364 180,365 179,365 178,366 177,366 176,367 175,367 174,368 173,368 172,369 171,369 170,370 169,370 168,371 167,371 166,372 164,372 163,371 163,370 162,369 162,368 161,367 161,366 160,365 160,364 159,363 159,362 158,361 158,360 157,359 157,358 156,357 156,356 155,355 155,354 154,353 154,351 153,350 153,349 152,348 152,347 151,346 151,344 150,343 150,341 149,340 149,339 148,338 148,336 147,335 147,333 146,332 146,330 145,329 145,327 144,326 144,324 143,323 143,320 142,319 142,316 141,315 141,313 140,312 140,308 139,307 139,304 138,303 138,299 137,298 137,293 136,292 136,286 135,285 135,278 134,277 134,265 133,264 133,238 134,237 134,224 135,223 135,217 136,216 136,210 137,209 137,204 138,203 138,199 139,198 139,194 140,193 140,190 141,189 141,186 142,185 142,183 143,182 143,179 144,178 144,176 145,175 145,173 146,172 146,170 147,169 147,167 148,166 148,164 149,163 149,161 150,160 150,159 151,158 151,156 152,155 152,154 153,153 153,151 154,150 154,149 155,148 155,147 156,146 156,145 157,144 157,142 158,141 158,140 159,139 159,138 160,137 160,136 161,135 161,134 162,133 162,132 163,131 163,130 165,128 165,127 166,126 166,125 167,124 167,123 169,121 169,120 170,119 170,118 172,116 172,115 174,113 174,112 174,113 169,118 169,119 166,122 166,123 163,126 163,127 160,130 160,131 158,133 158,134 156,136 156,137 153,140 153,141 152,142 152,143 150,145 150,146 148,148 148,149 147,150 147,151 145,153 145,154 144,155 144,156 143,157 143,158 141,160 141,161 140,162 140,163 139,164 139,165 138,166 138,167 137,168 137,169 136,170 136,171 134,173 134,174 133,175 133,177 132,178 132,179 131,180 131,181 130,182 130,183 129,184 129,185 128,186 128,188 127,189 127,190 126,191 126,192 125,193 125,195 124,196 124,197 123,198 123,200 122,201 122,203 121,204 121,205 120,206 120,208 119,209 119,211 118,212 118,214 117,215 117,218 116,219 116,221 115,222 115,224 114,225 114,228 113,229 113,232 112,233 112,236 111,237 111,240 110,241 110,245 109,246 109,249 108,250 108,255 107,256 107,261 106,262 106,268 105,269 105,277 104,278 104,289 103,290 103,327 104,328 104,339 105,340 105,347 106,348 106,355 107,356 107,360 108,361 108,366 109,367 109,371 110,372 110,375 111,376 111,380 112,381 112,384 113,385 113,387 114,388 114,391 115,392 115,394 116,395 116,396 114,398 113,398 112,399 111,399 110,400 109,400 108,401 107,401 106,402 105,402 104,403 103,403 102,404 101,404 100,405 99,405 98,406 97,406 96,407 95,407 94,408 93,408 92,409 90,409 88,411 87,411 86,412 85,412 84,413 83,413 82,414 81,414 80,415 79,415 78,416 77,416 76,417 75,417 74,418 73,418 72,419 71,419 70,420 69,420 68,421 67,421 66,422 65,422 64,423 63,423 62,424 61,424 60,425 59,425 58,426 57,426 56,427 55,427 54,428 53,428 52,429 51,429 50,430 49,430 48,431 47,431 46,432 44,432 42,434 41,434 40,435 38,435 36,437 35,437 34,438 32,438 30,440 28,440 27,439 26,439 25,438 24,438 23,437 22,437 21,436 20,436 19,435 18,435 17,434 16,434 15,433 14,433 13,432 12,432 11,431 10,431 9,430 8,430 7,429 6,429 5,428 4,428 3,427 2,427 1,426 0,426 2,428 2,429 3,430 3,431 4,432 4,433 5,434 5,435 7,437 7,438 8,439 8,440 9,441 9,442 10,443 10,444 12,446 12,447 13,448 13,449 14,450 14,451 15,452 15,453 16,454 16,455 18,457 18,458 19,459 19,460 20,461 20,462 21,463 21,464 23,466 23,467 24,468 24,469 25,470 25,471 27,473 27,474 28,475 28,476 29,477 29,478 30,479 30,480 31,481 31,482 33,484 33,485 34,486 34,487 35,488 35,489 36,490 36,491 38,493 38,494 39,495 39,496 40,497 40,498 42,500 42,501 43,502 43,503 44,504 44,505 45,506 45,507 47,509 47,510 48,511 48,512 49,513 49,514 50,515 50,516 52,518 52,519 53,520 53,521 54,522 54,523 55,524 55,525 56,526 56,527 58,529 58,530 59,531 59,532 60,533 60,534 61,535 61,536 63,538 63,539 64,540 64,541 65,542 65,543 65,523 64,522 64,498 66,496 67,496 70,493 71,493 74,490 75,490 78,487 79,487 81,485 82,485 85,482 86,482 89,479 90,479 92,477 93,477 96,474 97,474 100,471 101,471 103,469 104,469 107,466 108,466 111,463 112,463 115,460 116,460 118,458 119,458 122,455 123,455 126,452 127,452 129,450 130,450 133,447 134,447 135,446 137,448 137,449 138,450 138,451 140,453 140,454 141,455 141,456 142,457 142,458 143,459 143,460 145,462 145,463 146,464 146,465 148,467 148,468 149,469 149,470 151,472 151,473 153,475 153,476 155,478 155,479 157,481 157,482 160,485 160,486 162,488 162,489 165,492 165,493 169,497 169,498 173,502 173,503 179,509 179,510 206,537 207,537 213,543 214,543 218,547 219,547 222,550 223,550 226,553 227,553 230,556 231,556 233,558 234,558 236,560 237,560 239,562 240,562 242,564 243,564 245,566 246,566 248,568 249,568 250,569 251,569 253,571 254,571 255,572 256,572 257,573 258,573 260,575 261,575 262,576 263,576 264,577 265,577 266,578 267,578 268,579 269,579 270,580 271,580 272,581 273,581 274,582 275,582 276,583 277,583 278,584 279,584 280,585 281,585 282,586 283,586 284,587 286,587 287,588 288,588 289,589 290,589 291,590 293,590 294,591 295,591 296,592 298,592 299,593 301,593 302,594 303,594 304,595 306,595 307,596 309,596 310,597 312,597 313,598 315,598 316,599 319,599 320,600 322,600 323,601 325,601 326,602 329,602 330,603 333,603 335,605 334,606 335,607 335,714 336,715 336,739 336,732 337,731 337,726 338,725 338,719 339,718 339,712 340,711 340,706 341,705 341,700 342,699 342,693 343,692 343,687 344,686 344,680 345,679 345,673 346,672 346,667 347,666 347,660 348,659 348,654 349,653 349,647 350,646 350,641 351,640 351,634 352,633 352,628 353,627 353,621 354,620 354,614 355,613 355,609 356,608 357,608 358,609 364,609 365,610 372,610 373,611 382,611 383,612 400,612 401,613 414,613 415,612 432,612 433,611 443,611 444,610 450,610 451,609 457,609 458,608 463,608 464,607 468,607 469,606 472,606 473,605 477,605 478,604 481,604 482,603 485,603 486,602 489,602 490,601 492,601 493,600 496,600 497,599 499,599 500,598 502,598 503,597 505,597 506,596 508,596 509,595 511,595 512,594 513,594 514,593 516,593 517,592 519,592 520,591 521,591 522,590 524,590 525,589 526,589 527,588 528,588 529,587 531,587 532,586 533,586 534,585 535,585 536,584 537,584 538,583 539,583 540,582 541,582 542,581 543,581 544,580 545,580 546,579 547,579 548,578 549,578 550,577 551,577 552,576 553,576 554,575 555,575 556,574 557,574 559,572 560,572 561,571 562,571 564,569 565,569 566,568 567,568 569,566 570,566 571,565 572,565 574,563 575,563 577,561 578,561 580,559 581,559 584,556 585,556 587,554 588,554 591,551 592,551 595,548 596,548 601,543 602,543 607,538 608,538 619,527 620,527 623,524 625,526 625,527 631,533 631,534 636,539 636,540 642,546 642,547 648,553 648,554 653,559 653,560 659,566 659,567 665,573 665,574 670,579 670,580 675,585 675,586 681,592 681,593 687,599 687,600 692,605 692,606 698,612 698,613 703,618 703,619 709,625 709,626 715,632 715,633 720,638 720,639 726,645 726,646 731,651 731,652 737,658 737,659 743,665 743,666 748,671 748,672 753,677 753,678 756,681 755,680 755,679 752,676 752,675 750,673 750,672 748,670 748,669 746,667 746,666 744,664 744,663 742,661 742,660 740,658 740,657 738,655 738,654 736,652 736,651 734,649 734,648 732,646 732,645 730,643 730,642 728,640 728,639 726,637 726,636 724,634 724,633 722,631 722,630 720,628 720,627 717,624 717,623 715,621 715,620 713,618 713,617 711,615 711,614 709,612 709,611 707,609 707,608 705,606 705,605 703,603 703,602 701,600 701,599 699,597 699,596 697,594 697,593 695,591 695,590 693,588 693,587 691,585 691,584 689,582 689,581 687,579 687,578 685,576 685,575 683,573 683,572 681,570 681,569 679,567 679,566 677,564 677,563 675,561 675,560 673,558 673,557 670,554 670,553 668,551 668,550 667,549 667,548 664,545 664,544 663,543 663,542 660,539 660,538 658,536 658,535 656,533 656,532 654,530 654,529 652,527 652,526 650,524 650,523 648,521 648,520 646,518 646,517 644,515 644,514 642,512 642,511 640,509 640,508 639,507 639,506 643,502 643,501 647,497 647,496 651,492 651,491 654,488 654,487 656,485 656,484 658,482 658,481 661,478 661,477 663,475 663,474 665,472 665,471 666,470 666,469 668,467 668,466 669,465 669,464 671,462 671,461 672,460 672,459 673,458 673,457 675,455 675,454 676,453 676,452 677,451 677,450 678,449 678,448 679,447 679,446 680,445 680,444 681,443 681,442 682,441 682,440 683,439 683,438 684,437 684,436 685,435 685,434 686,433 686,431 687,430 687,429 688,428 688,427 689,426 689,424 690,423 690,422 691,421 691,419 692,418 692,417 693,416 693,414 694,413 694,411 695,410 695,408 696,407 696,406 697,405 697,403 698,402 698,399 699,398 699,396 700,395 700,393 701,392 701,389 702,388 702,386 703,385 703,381 704,380 704,377 705,376 705,373 706,372 706,368 707,367 707,363 708,362 708,357 709,356 709,350 710,349 710,342 711,341 711,331 712,330 712,286 711,285 711,275 710,274 710,267 709,266 709,260 708,259 708,254 707,253 707,249 706,248 706,244 705,243 705,240 704,239 704,236 703,235 703,231 702,230 702,228 701,227 701,224 700,223 700,221 699,220 699,218 698,217 698,214 697,213 697,211 696,210 696,209 695,208 695,206 694,205 694,203 693,202 693,200 692,199 692,198 691,197 691,195 690,194 690,193 689,192 689,190 688,189 688,188 687,187 687,186 686,185 686,183 685,182 685,181 684,180 684,179 683,178 683,177 682,176 682,175 681,174 681,173 680,172 680,171 679,170 679,169 678,168 678,167 677,166 677,165 676,164 676,163 675,162 675,161 673,159 673,158 672,157 672,156 671,155 671,154 669,152 669,151 668,150 668,149 666,147 666,146 665,145 665,144 663,142 663,141 661,139 661,138 659,136 659,135 657,133 659,131 660,131 662,129 663,129 664,128 665,128 667,126 668,126 670,124 671,124 673,122 674,122 676,120 677,120 678,119 679,119 681,117 682,117 684,115 685,115 687,113 688,113 690,111 691,111 692,110 693,110 695,108 696,108 698,106 699,106 701,104 702,104 704,102 705,102 707,100 708,100 709,99 710,99 712,97 713,97 715,95 716,95 718,93 719,93 721,91 722,91 723,90 724,90 726,88 727,88 729,86 730,86 732,84 733,84 735,82 736,82 737,81 738,81 740,79 741,79 743,77 744,77 746,75 747,75 749,73 750,73 752,71 753,71 754,70 755,70 757,68 758,68 760,66 761,66 763,64 764,64 765,63 766,63 768,61 769,61 771,59 772,59 774,57 775,57 777,55 778,55 780,53 781,53 782,52 783,52 785,50 786,50 788,48 789,48 791,46 792,46 794,44 795,44 796,43 797,43 799,41 800,41 802,39 803,39 805,37 806,37 808,35 809,35 811,33 812,33 813,32 814,32 816,30 817,30 819,28 820,28 822,26 823,26 825,24 826,24 827,23 828,23 830,21 831,21 833,19 834,19 836,17 837,17 839,15 840,15 841,14 842,14 844,12 845,12 847,10 848,10 850,8 851,8" stroke="none" /><polygon fill="black" points="278,0 277,1 272,1 271,2 269,2 268,3 266,3 265,4 264,4 263,5 262,5 261,6 260,6 259,7 258,7 256,9 255,9 244,20 244,21 242,23 242,24 241,25 241,26 240,27 240,28 239,29 239,31 238,32 238,34 237,35 237,37 236,38 236,45 235,46 235,51 236,52 236,59 237,60 237,62 238,63 238,65 239,66 239,68 240,69 240,70 241,71 241,72 243,74 243,75 245,77 245,78 254,87 255,87 257,89 258,89 260,91 261,91 262,92 263,92 264,93 266,93 267,94 268,94 269,95 272,95 273,96 278,96 279,97 289,97 290,96 295,96 296,95 298,95 299,94 301,94 302,93 303,93 304,92 305,92 306,91 307,91 308,90 309,90 310,89 311,89 314,86 315,86 321,80 321,79 324,76 324,75 326,73 326,72 327,71 327,70 328,69 328,68 329,67 329,65 330,64 330,62 331,61 331,57 332,56 332,41 331,40 331,36 330,35 330,33 329,32 329,30 328,29 328,28 327,27 327,26 326,25 326,24 324,22 324,21 322,19 322,18 314,10 313,10 311,8 310,8 308,6 307,6 306,5 305,5 304,4 302,4 301,3 300,3 299,2 296,2 295,1 291,1 290,0" stroke="none" /></svg>