<?xml version="1.0" encoding="UTF-8" standalone="no"?>
<svg
   xmlns:dc="http://purl.org/dc/elements/1.1/"
   xmlns:cc="http://creativecommons.org/ns#"
   xmlns:rdf="http://www.w3.org/1999/02/22-rdf-syntax-ns#"
   xmlns:svg="http://www.w3.org/2000/svg"
   xmlns="http://www.w3.org/2000/svg"
   xmlns:sodipodi="http://sodipodi.sourceforge.net/DTD/sodipodi-0.dtd"
   xmlns:inkscape="http://www.inkscape.org/namespaces/inkscape"
   width="220.40848mm"
   height="113.99999mm"
   viewBox="0 0 220.40848 113.99999"
   version="1.1"
   id="svg34486"
   inkscape:version="1.0.2 (e86c8708, 2021-01-15)"
   sodipodi:docname="Aon Ehe.svg">
  <defs
     id="defs34480" />
  <sodipodi:namedview
     id="base"
     pagecolor="#ffffff"
     bordercolor="#666666"
     borderopacity="1.0"
     inkscape:pageopacity="0.0"
     inkscape:pageshadow="2"
     inkscape:zoom="0.57857119"
     inkscape:cx="818.67155"
     inkscape:cy="166.50295"
     inkscape:document-units="mm"
     inkscape:current-layer="layer1"
     inkscape:document-rotation="0"
     showgrid="false"
     inkscape:pagecheckerboard="true"
     showborder="false"
     inkscape:window-width="1252"
     inkscape:window-height="828"
     inkscape:window-x="0"
     inkscape:window-y="23"
     inkscape:window-maximized="0"
     showguides="false" />
  <metadata
     id="metadata34483">
    <rdf:RDF>
      <cc:Work
         rdf:about="">
        <dc:format>image/svg+xml</dc:format>
        <dc:type
           rdf:resource="http://purl.org/dc/dcmitype/StillImage" />
        <dc:title />
      </cc:Work>
    </rdf:RDF>
  </metadata>
  <g
     inkscape:label="Layer 1"
     inkscape:groupmode="layer"
     id="layer1"
     transform="translate(53.272012,11.622565)">
    <path
       style="fill:#000000"
       d="m 1.8513873,101.24633 c -0.85231999,-1.379097 1.10523,-3.281197 2.49371,-2.422997 0.59792,0.3695 1.08713,1.0471 1.08713,1.505797 0,1.3303 -2.87106,2.0657 -3.58084,0.9172 z m 107.0269927,0.044 c -1.03052,-1.667397 1.28721,-3.579497 2.66672,-2.199997 1.15392,1.153897 0.43172,3.287097 -1.11287,3.287097 -0.48508,0 -1.18431,-0.4892 -1.55385,-1.0871 z M -52.504523,99.801233 c 1.0841,-1.3063 1.0623,-1.7318 -0.1275,-2.4847 -1.0851,-0.6866 -0.8252,-0.9137 1.0643,-0.9298 2.78702,-0.024 51.99995031,-48.3644 51.99995031,-51.0783 0,-2.7074 -49.22615031,-50.9291981 -52.00735031,-50.9462981 -1.884,-0.012 -2.1421,-0.2372 -1.0569,-0.9238 1.1898,-0.7529 1.2116,-1.1784 0.1275,-2.4847 -1.5962,-1.9232999 -0.3192,-2.0846999 1.858,-0.2348 0.8683,0.7378 4.1869,2.0601 7.37463,2.9384 16.555291,4.5613 38.6185803,26.2570001 44.3202103,43.5817981 1.20159,3.6511 2.40147,5.9634 2.6664,5.1384 0.26493,-0.825 1.09188,-3.5189 1.83768,-5.9864 1.40723,-4.6559 9.2836807,-17.486798 12.2073607,-19.885998 2.22099,-1.8226 2.11135,-4.2999 -0.32753,-7.4005001 -2.84098,-3.6117 -2.70497,-3.7271 4.39211,-3.7271 6.02184,0 6.90113,-0.3196 15.17949,-5.51689996 4.83305,-3.03430004 10.44455,-5.78190004 12.46999,-6.10570004 5.48257,-0.8767 6.65713,-1.8283 4.89411,-3.9648999 -1.30818,-1.5854 -1.25576,-1.6441 0.59012,-0.661 1.45299,0.7738 2.58405,0.7701 4,-0.013 1.79834,-0.995 1.8463,-0.9361 0.53848,0.661 -1.61392,1.9708999 -0.21865,3.5554999 3.15719,3.5855999 2.71857,0.024 11.80802,4.4437 17.27531,8.3997 4.64706,3.3625 5.50449,3.6156 12.25,3.6156 4.168803,0 7.253203,0.4252 7.253203,1 0,0.55 -0.37914,1 -0.84253,1 -0.46339,0 -1.63872,1.4784 -2.61183,3.2854001 l -1.76931,3.2854 5.62593,7.4646 c 5.416739,7.186998 9.597739,15.900398 9.597739,20.002098 0,3.8387 1.69636,1.8753 3.27244,-3.7875 4.56157,-16.389698 26.47367,-38.21379806 43.9223,-43.7458981 3.78599,-1.2004 7.40599,-2.7049 8.04444,-3.3433 1.74898,-1.7489999 3.19931,-1.3940999 1.69757,0.4154 -1.08413,1.3063 -1.06229,1.7318 0.12755,2.4847 1.08381,0.6858 0.8211,0.9122 -1.0718,0.9238 -2.82872,0.017 -51.9925,48.2709981 -51.9925,51.0300981 0,2.7442 49.19132,50.9832 52.00736,51.0005 1.88397,0.012 2.14206,0.2371 1.05694,0.9238 -1.18984,0.7529 -1.21168,1.1784 -0.12755,2.4846 1.6134,1.944097 0.29645,2.080697 -1.85801,0.1929 -0.86831,-0.7609 -4.05374,-2.097 -7.07874,-2.9692 -17.22149,-4.9654 -39.53598,-26.8045 -44.57446,-43.6249 -1.83775,-6.135 -3.39331,-7.8283 -3.4657,-3.7725 -0.0661,3.7026 -4.41872,12.6945 -9.407829,19.4352 -4.78289,6.4622 -5.18286,8.7164 -2.01328,11.3469 2.757569,2.2886 1.49426,3.1094 -4.10573,2.6676 -5.287873,-0.4171 -5.861253,-0.2225 -11.435583,3.8811 -6.96118,5.1245 -13.95138,8.7911 -19.72231,10.3451 -2.58429,0.6959 -4.01252,1.5974 -3.72485,2.3513 0.29918,0.784097 -0.61393,1.260997 -2.54533,1.329397 -2.2343,0.079 -2.75506,-0.2028 -2.01709,-1.091997 1.25228,-1.5089 0.2911,-2.5144 -2.40451,-2.5154 -3.06888,-10e-4 -13.69981,-5.2835 -19.99955,-9.9373 -4.87218,-3.5993 -6.12962,-4.0619 -11.04108,-4.0619 -6.27845,0 -6.3128,-0.039 -3.43333,-3.9341 l 2.10937,-2.8531 -5.21079,-6.7985 c -5.4620307,-7.1263 -10.0079507,-15.889 -10.0079507,-19.2912 0,-3.4061 -1.79831,-3.3223 -2.53556,0.1181 -3.66639,17.1097 -27.2634493,41.2006 -45.4644403,46.416 -3.025,0.8668 -6.21045,2.1985 -7.07875,2.9594 -2.1544,1.887797 -3.4714,1.751197 -1.858,-0.1929 z m 113.101721,-6.1738 c 5.17669,-4.29 10.0821,-9.3363 9.57172,-9.8466 -0.25482,-0.2549 -6.48732,-0.3374 -13.85,-0.1834 l -13.38669,0.28 6.44534,6.25 c 7.45927,7.2332 6.91839,7.0645 11.21963,3.5 z m -88.62473,-8.5636 c 8.16946,-6.1411 15.34616,-13.9187 21.3987793,-23.1904 7.39585001,-11.3293 6.24365001,-11.2718 -4.5068793,0.2247 -5.25662,5.6214 -14.81678,15.2202 -21.244811,21.3307 -11.1252,10.5755 -11.44614,10.9907 -6.6726,8.6316 2.75809,-1.363 7.71957,-4.5115 11.025511,-6.9966 z m 71.85442,3.2321 c -4.15282,-4.1528 -5.61273,-5.021 -7.98809,-4.75 -2.77406,0.3164 -2.58792,0.5481 4.08276,5.0815 9.01264,6.1251 10.25635,6.0195 3.90533,-0.3315 z m 26.72939,2.6058 c 2.40677,-1.3617 5.72595,-3.5955 7.37595,-4.9641 l 3,-2.4883 -3.03759,-0.036 c -2.34647,-0.028 -4.15811,1.1017 -7.96241,4.9641 -5.59422,5.6796 -5.51556,5.9978 0.62405,2.5242 z m 77.599022,-5.6474 c -4.8273,-4.4616 -14.16019,-13.7965 -20.73975,-20.7444 -6.57956,-6.9479 -11.96744,-12.0995 -11.97308,-11.448 -0.0245,2.8332 12.58589,19.6978 19.4767,26.0473 6.86063,6.3216 18.56687,14.2759 20.99031,14.2626 0.56251,0 -2.92687,-3.6559 -7.75418,-8.1175 z m -124.973072,-5.1269 c -0.22916,-0.6875 -1.01666,-1.25 -1.75,-1.25 -0.73333,0 -1.52083,0.5625 -1.75,1.25 -0.24786,0.7436 0.46111,1.25 1.75,1.25 1.28889,0 1.99787,-0.5064 1.75,-1.25 z m 71.592793,-0.2991 c -0.68043,-1.7732 -3.471173,-1.5692 -4.093263,0.2991 -0.26043,0.7822 0.53889,1.25 2.13575,1.25 1.893503,0 2.398573,-0.3997 1.957513,-1.5491 z m -60.342793,0.1807 c 0,-0.2026 -2.05157,-2.42 -4.55905,-4.9275 -4.35846,-4.3585 -4.59585,-4.4632 -5.39545,-2.3816 -1.14701,2.9861 3.2169,7.6775 7.14159,7.6775 1.5471,0 2.81291,-0.1658 2.81291,-0.3684 z m 46.6554,-6.4341 7.03573,-6.8024 -1.30587,-7.4476 c -1.61643,-9.2186 -1.72481,-19.8759 -0.2958,-29.0861 l 1.08946,-7.021798 -7.3243,-7.4198 -7.32431,-7.4198001 h -16.04018 -16.04018 l -7.18411,7.2500001 -7.1841,7.25 1.12148,4.499998 c 1.49943,6.0166 1.49456,28.1741 -0.008,34.8149 l -1.20225,5.3149 6.25337,6.3142 6.25336,6.3142 17.55984,0.1209 17.55984,0.1209 z m -25.01592,-26.8913 c -1.19516,-1.1952 -0.64571,-3.3062 0.86052,-3.3062 0.825,0 1.5,0.6484 1.5,1.441 0,1.6706 -1.42728,2.7984 -2.36052,1.8652 z m 32.16905,30.3914 c 2.70763,-2.7936 3.00752,-3.5576 1.94616,-4.9582 -1.12618,-1.4861 -1.74121,-1.205 -6.00469,2.7448 -5.54312,5.1352 -5.67741,5.5158 -1.94617,5.5158 1.85961,0 3.88177,-1.1121 6.0047,-3.3024 z m -66.80571,-10.1923 c -0.67019,-1.2523 -4.14099,-5.1408 -7.7129,-8.6411 -6.4202207,-6.2915 -6.4715707,-6.3185 -4.4974907,-2.3642 1.0982897,2.2 4.1226407,6.8862 6.7207807,10.4139 4.08538,5.5469 4.858,6.1742 5.71601,4.641 0.68282,-1.2201 0.61224,-2.4826 -0.2264,-4.0496 z m 76.265443,-0.2553 c 1.89123,-2.6125 4.699639,-7 6.240909,-9.75 l 2.80231,-5 -7.155739,6.9732 c -6.625553,6.4565 -8.488243,9.861 -6.489073,11.8601 0.975353,0.9754 0.875173,1.0643 4.601593,-4.0833 z m -72.490493,-11.3981 c 1.19494,-11.1527 0.17124,-28.8519 -1.66876,-28.8519 -1.1764,0 -18.1090107,17.6156 -18.1090107,18.8394 0,1.6191 17.3743407,19.0043 18.2326707,18.2441 0.40297,-0.3568 1.09826,-4.0611 1.5451,-8.2316 z m 74.727193,-0.4431 c 4.672269,-4.7252 8.495039,-9.0628 8.495039,-9.6391 0,-2.2736 -16.976532,-18.3182 -17.884882,-16.9032 -1.54631,2.4089 -2.17862,16.3663 -1.13861,25.1335 0.55457,4.675 1.01173,8.8375 1.0159,9.25 0.0156,1.5382 1.21937,0.5459 9.512553,-7.8412 z M -5.5829827,30.160533 C -12.480012,18.430835 -30.823653,1.5564349 -40.685373,-2.1301651 c -0.88967,-0.3326 7.43533,8.5389 18.500001,19.7146001 11.06468,11.175598 20.2902293,20.215698 20.5012093,20.089198 0.21098,-0.1265 -1.54348,-3.5075 -3.89882,-7.5131 z M 22.424578,20.627435 c 0.004,-1.2375 -0.41222,-2.25 -0.9254,-2.25 -1.47006,0 -7.51166,7.918898 -11.062571,14.499998 l -3.2373697,6 7.6088507,-8 c 4.83234,-5.0808 7.61163,-8.820998 7.61649,-10.249998 z M 104.5579,34.627433 C 98.796731,23.345635 91.527958,16.316935 91.447538,21.950035 c -0.0138,0.9653 13.786332,16.427398 14.661662,16.427398 0.20002,0 -0.49806,-1.6875 -1.5513,-3.75 z m 51.51015,-37.9474981 c -0.16245,-0.1625 -4.34894,2.37510004 -9.3033,5.639 -12.80371,8.4350001 -27.17892,24.3973981 -30.88651,34.2968981 -0.35809,0.9561 8.60459,-7.5719 19.91706,-18.951098 11.31247,-11.3792001 20.43521,-20.8223001 20.27275,-20.9848001 z m -119.635822,11.6192 c 0,-1.4176 -5.13989,0.036 -7.91488,2.2384001 -3.52328,2.7963 -4.34228,4.4543 -3.50433,7.0944 0.55486,1.7482 1.24048,1.3661 6.02268,-3.3567 2.96809,-2.9312 5.39653,-5.6205001 5.39653,-5.9761001 z m 53.30262,9.0291001 c 0.88549,-3.3861 -9.47334,-11.4467001 -11.76514,-9.1549001 -0.60954,0.6095 9.37759,11.2041001 10.56173,11.2041001 0.36714,0 0.90868,-0.9221 1.20341,-2.0492 z M 25.432228,8.3422349 c 0,-0.5306 -1.36583,-0.9648 -3.03518,-0.9648 -2.7317,0 -2.92748,0.2013 -1.95801,2.0127 1.10446,2.0637001 4.99319,1.2476001 4.99319,-1.0479 z m 67.02216,-0.7853 c -4.04171,-0.403 -5.0904,0.5662 -2.59045,2.3942 1.68544,1.2325001 2.17291,1.1906001 3.866733,-0.3317 1.8907,-1.6993 1.85946,-1.7498 -1.276283,-2.0625 z m -47.81562,-6.167 c 5.33299,-4.953 4.00045,-5.1194 -3.48783,-0.43539996 -6.43593,4.02569996 -6.72891,4.42289996 -3.26216,4.42289996 1.48021,0 4.16294,-1.5848 6.74999,-3.9875 z m 19.7202,-1.50669996 c -6.77839,-6.86280004 -8.15442,-6.86330004 -14.92674,-0.01 l -5.43168,5.49999996 h 12.89258 12.89258 z m 14.07326,5.04209996 c 0,-0.7059 -12.20038,-7.6808 -12.64953,-7.2317 -0.92712,0.9271 8.1123,7.6838 10.27977,7.6838 1.30337,0 2.36976,-0.2034 2.36976,-0.4521 z m -76.3125007,-13.1937 c -1.37383999,-1.3739 -0.66124,-3.4957999 1.0625,-3.1637999 0.9625,0.1853 1.75,0.9683 1.75,1.7399999 0,1.5788 -1.76429,2.472 -2.8125,1.4238 z m 106.8451227,-0.3014 c -0.87924,-1.4226 0.24199,-3.0527999 2.09972,-3.0527999 0.87615,0 1.37805,0.7026 1.19098,1.6670999 -0.38952,2.0085 -2.38616,2.8493 -3.2907,1.3857 z"
       id="path21" />
  </g>
</svg>
