<?xml version="1.0" encoding="UTF-8" standalone="no"?>
<!-- Created with Inkscape (http://www.inkscape.org/) -->

<svg
   xmlns:dc="http://purl.org/dc/elements/1.1/"
   xmlns:cc="http://creativecommons.org/ns#"
   xmlns:rdf="http://www.w3.org/1999/02/22-rdf-syntax-ns#"
   xmlns:svg="http://www.w3.org/2000/svg"
   xmlns="http://www.w3.org/2000/svg"
   xmlns:sodipodi="http://sodipodi.sourceforge.net/DTD/sodipodi-0.dtd"
   xmlns:inkscape="http://www.inkscape.org/namespaces/inkscape"
   width="486"
   height="413"
   id="svg4335"
   version="1.1"
   inkscape:version="0.48.4 r9939"
   sodipodi:docname="New document 7">
  <defs
     id="defs4337" />
  <sodipodi:namedview
     id="base"
     pagecolor="#ffffff"
     bordercolor="#666666"
     borderopacity="1.0"
     inkscape:pageopacity="0.0"
     inkscape:pageshadow="2"
     inkscape:zoom="1.4"
     inkscape:cx="310.90114"
     inkscape:cy="183.40525"
     inkscape:document-units="px"
     inkscape:current-layer="layer1"
     showgrid="false"
     fit-margin-top="0"
     fit-margin-left="0"
     fit-margin-right="0"
     fit-margin-bottom="0"
     inkscape:window-width="1366"
     inkscape:window-height="705"
     inkscape:window-x="-8"
     inkscape:window-y="-8"
     inkscape:window-maximized="1" />
  <metadata
     id="metadata4340">
    <rdf:RDF>
      <cc:Work
         rdf:about="">
        <dc:format>image/svg+xml</dc:format>
        <dc:type
           rdf:resource="http://purl.org/dc/dcmitype/StillImage" />
        <dc:title></dc:title>
      </cc:Work>
    </rdf:RDF>
  </metadata>
  <g
     inkscape:label="Layer 1"
     inkscape:groupmode="layer"
     id="layer1"
     transform="translate(92.25,-707.46873)">
    <path
       style="fill:#000000;stroke:#000000;stroke-width:0;stroke-linecap:butt;stroke-linejoin:miter;stroke-miterlimit:4;stroke-opacity:1;stroke-dasharray:none;display:inline"
       d="M -92.25,913.96871 114.0766,707.46873 c 0,0 -5.66588,48.07043 67.47854,121.27632 69.61412,69.67262 121.18311,67.54387 121.18311,67.54387 0,0 -45.90348,21.94836 -128.25183,-60.4692 -77.024053,-77.08878 -63.23344,-122.69618 -63.23344,-122.69618 0,0 -0.96024,9.44792 -94.628827,103.18927 C -86.603413,919.62005 -92.25,913.96871 -92.25,913.96871 z"
       id="path3044"
       inkscape:connector-curvature="0"
       sodipodi:nodetypes="ccscscsc" />
    <path
       sodipodi:type="arc"
       style="fill:#000000;fill-opacity:1;fill-rule:evenodd;stroke:none;display:inline"
       id="path3052"
       sodipodi:cx="149.00233"
       sodipodi:cy="142.00241"
       sodipodi:rx="6.0023398"
       sodipodi:ry="5.9980502"
       d="m 155.00467,142.00241 a 6.0023398,5.9980502 0 1 1 -12.00468,0 6.0023398,5.9980502 0 1 1 12.00468,0 z"
       transform="matrix(0.70632247,-0.70691606,0.70682763,0.70742164,-99.310594,913.89527)" />
    <path
       sodipodi:nodetypes="ccscscsc"
       inkscape:connector-curvature="0"
       id="path4014"
       d="M -92.25,913.96871 114.0766,707.46873 c 0,0 -5.66588,48.07043 67.47854,121.27632 69.61412,69.67262 121.18311,67.54387 121.18311,67.54387 0,0 -45.90348,21.94836 -128.25183,-60.4692 -77.024053,-77.08878 -63.23344,-122.69618 -63.23344,-122.69618 0,0 -0.96024,9.44792 -94.628827,103.18927 C -86.603413,919.62005 -92.25,913.96871 -92.25,913.96871 z"
       style="fill:#000000;stroke:#000000;stroke-width:0;stroke-linecap:butt;stroke-linejoin:miter;stroke-miterlimit:4;stroke-opacity:1;stroke-dasharray:none;display:inline" />
    <path
       transform="matrix(0.70632247,-0.70691606,0.70682763,0.70742164,-99.310594,913.89527)"
       d="m 155.00467,142.00241 a 6.0023398,5.9980502 0 1 1 -12.00468,0 6.0023398,5.9980502 0 1 1 12.00468,0 z"
       sodipodi:ry="5.9980502"
       sodipodi:rx="6.0023398"
       sodipodi:cy="142.00241"
       sodipodi:cx="149.00233"
       id="path4016"
       style="fill:#000000;fill-opacity:1;fill-rule:evenodd;stroke:none;display:inline"
       sodipodi:type="arc" />
    <g
       transform="matrix(0.70659792,-0.70719173,0.70659792,0.70719173,-514.13755,733.07788)"
       style="display:inline"
       id="g3651">
      <path
         style="fill:#000000;stroke:#000000;stroke-width:0;stroke-linecap:butt;stroke-linejoin:miter;stroke-miterlimit:4;stroke-opacity:1;stroke-dasharray:none"
         d="m 170.64061,426.42817 292.00001,0 c 0,0 -37.99611,29.97758 -37.99611,133.4939 0,98.52014 37.99611,133.5061 37.99611,133.5061 0,0 -48,-16.96406 -48,-133.5061 0,-109.0069 42.00389,-131.49387 42.00389,-131.49387 0,0 -7.35937,6.00041 -139.91795,5.9962 -146.08595,-0.005 -146.08595,-7.99623 -146.08595,-7.99623 z"
         id="path3653"
         inkscape:connector-curvature="0"
         sodipodi:nodetypes="ccscscsc" />
    </g>
    <g
       transform="matrix(0.70659792,-0.70719173,0.70659792,0.70719173,-514.13755,733.07788)"
       style="display:inline"
       inkscape:transform-center-y="-103.22251"
       id="g3831"
       inkscape:transform-center-x="-197.49412">
      <path
         style="fill:#000000;stroke:#000000;stroke-width:0;stroke-linecap:butt;stroke-linejoin:miter;stroke-miterlimit:4;stroke-opacity:1;stroke-dasharray:none"
         d="m 170.64061,426.42817 292.00001,0 c 0,0 -37.99611,29.97758 -37.99611,133.4939 0,98.52014 37.99611,133.5061 37.99611,133.5061 0,0 -48,-16.96406 -48,-133.5061 0,-109.0069 42.00389,-131.49387 42.00389,-131.49387 0,0 -7.35937,6.00041 -139.91795,5.9962 -146.08595,-0.005 -146.08595,-7.99623 -146.08595,-7.99623 z"
         id="path3833"
         inkscape:connector-curvature="0"
         sodipodi:nodetypes="ccscscsc" />
    </g>
    <g
       transform="matrix(0.70659792,-0.70719173,0.70659792,0.70719173,-514.13755,733.07788)"
       style="display:inline"
       inkscape:transform-center-y="-103.22251"
       id="g3837"
       inkscape:transform-center-x="-197.49412">
      <path
         sodipodi:nodetypes="ccscscsc"
         inkscape:connector-curvature="0"
         id="path3839"
         d="m 170.64061,426.42817 292.00001,0 c 0,0 -37.99611,29.97758 -37.99611,133.4939 0,98.52014 37.99611,133.5061 37.99611,133.5061 0,0 -48,-16.96406 -48,-133.5061 0,-109.0069 42.00389,-131.49387 42.00389,-131.49387 0,0 -7.35937,6.00041 -139.91795,5.9962 -146.08595,-0.005 -146.08595,-7.99623 -146.08595,-7.99623 z"
         style="fill:#000000;stroke:#000000;stroke-width:0;stroke-linecap:butt;stroke-linejoin:miter;stroke-miterlimit:4;stroke-opacity:1;stroke-dasharray:none" />
    </g>
    <g
       transform="matrix(0.70659792,-0.70719173,0.70659792,0.70719173,-514.13755,733.07788)"
       style="display:inline"
       id="g4018">
      <path
         sodipodi:nodetypes="ccscscsc"
         inkscape:connector-curvature="0"
         id="path4020"
         d="m 170.64061,426.42817 292.00001,0 c 0,0 -37.99611,29.97758 -37.99611,133.4939 0,98.52014 37.99611,133.5061 37.99611,133.5061 0,0 -48,-16.96406 -48,-133.5061 0,-109.0069 42.00389,-131.49387 42.00389,-131.49387 0,0 -7.35937,6.00041 -139.91795,5.9962 -146.08595,-0.005 -146.08595,-7.99623 -146.08595,-7.99623 z"
         style="fill:#000000;stroke:#000000;stroke-width:0;stroke-linecap:butt;stroke-linejoin:miter;stroke-miterlimit:4;stroke-opacity:1;stroke-dasharray:none" />
    </g>
    <g
       transform="matrix(0.70659792,-0.70719173,0.70659792,0.70719173,-514.13755,733.07788)"
       style="display:inline"
       id="g4022"
       inkscape:transform-center-y="-103.22251"
       inkscape:transform-center-x="-197.49412">
      <path
         sodipodi:nodetypes="ccscscsc"
         inkscape:connector-curvature="0"
         id="path4024"
         d="m 170.64061,426.42817 292.00001,0 c 0,0 -37.99611,29.97758 -37.99611,133.4939 0,98.52014 37.99611,133.5061 37.99611,133.5061 0,0 -48,-16.96406 -48,-133.5061 0,-109.0069 42.00389,-131.49387 42.00389,-131.49387 0,0 -7.35937,6.00041 -139.91795,5.9962 -146.08595,-0.005 -146.08595,-7.99623 -146.08595,-7.99623 z"
         style="fill:#000000;stroke:#000000;stroke-width:0;stroke-linecap:butt;stroke-linejoin:miter;stroke-miterlimit:4;stroke-opacity:1;stroke-dasharray:none" />
    </g>
    <g
       transform="matrix(0.70659792,-0.70719173,0.70659792,0.70719173,-514.13755,733.07788)"
       style="display:inline"
       id="g4026"
       inkscape:transform-center-y="-103.22251"
       inkscape:transform-center-x="-197.49412">
      <path
         style="fill:#000000;stroke:#000000;stroke-width:0;stroke-linecap:butt;stroke-linejoin:miter;stroke-miterlimit:4;stroke-opacity:1;stroke-dasharray:none"
         d="m 170.64061,426.42817 292.00001,0 c 0,0 -37.99611,29.97758 -37.99611,133.4939 0,98.52014 37.99611,133.5061 37.99611,133.5061 0,0 -48,-16.96406 -48,-133.5061 0,-109.0069 42.00389,-131.49387 42.00389,-131.49387 0,0 -7.35937,6.00041 -139.91795,5.9962 -146.08595,-0.005 -146.08595,-7.99623 -146.08595,-7.99623 z"
         id="path4028"
         inkscape:connector-curvature="0"
         sodipodi:nodetypes="ccscscsc" />
    </g>
    <path
       sodipodi:nodetypes="ccscscsc"
       inkscape:connector-curvature="0"
       id="path4104"
       d="m -92.25,913.9687 206.3266,206.5 c 0,0 -5.66588,-48.0705 67.47854,-121.27631 69.61412,-69.67263 121.18311,-67.54387 121.18311,-67.54387 0,0 -45.90348,-21.94836 -128.25183,60.4692 -77.024053,77.08868 -63.23344,122.69618 -63.23344,122.69618 0,0 -0.96024,-9.4479 -94.628837,-103.1893 C -86.603413,908.31739 -92.25,913.9687 -92.25,913.9687 z"
       style="fill:#000000;stroke:#000000;stroke-width:0;stroke-linecap:butt;stroke-linejoin:miter;stroke-miterlimit:4;stroke-opacity:1;stroke-dasharray:none;display:inline" />
    <path
       transform="matrix(0.70632247,0.70691606,0.70682763,-0.70742164,-99.310594,914.04217)"
       d="m 155.00467,142.00241 a 6.0023398,5.9980502 0 1 1 -12.00468,0 6.0023398,5.9980502 0 1 1 12.00468,0 z"
       sodipodi:ry="5.9980502"
       sodipodi:rx="6.0023398"
       sodipodi:cy="142.00241"
       sodipodi:cx="149.00233"
       id="path4106"
       style="fill:#000000;fill-opacity:1;fill-rule:evenodd;stroke:none;display:inline"
       sodipodi:type="arc" />
    <path
       style="fill:#000000;stroke:#000000;stroke-width:0;stroke-linecap:butt;stroke-linejoin:miter;stroke-miterlimit:4;stroke-opacity:1;stroke-dasharray:none;display:inline"
       d="m -92.25,913.9687 206.3266,206.5 c 0,0 -5.66588,-48.0705 67.47854,-121.27631 69.61412,-69.67263 121.18311,-67.54387 121.18311,-67.54387 0,0 -45.90348,-21.94836 -128.25183,60.4692 -77.024053,77.08868 -63.23344,122.69618 -63.23344,122.69618 0,0 -0.96024,-9.4479 -94.628837,-103.1893 C -86.603413,908.31739 -92.25,913.9687 -92.25,913.9687 z"
       id="path4108"
       inkscape:connector-curvature="0"
       sodipodi:nodetypes="ccscscsc" />
    <path
       sodipodi:type="arc"
       style="fill:#000000;fill-opacity:1;fill-rule:evenodd;stroke:none;display:inline"
       id="path4110"
       sodipodi:cx="149.00233"
       sodipodi:cy="142.00241"
       sodipodi:rx="6.0023398"
       sodipodi:ry="5.9980502"
       d="m 155.00467,142.00241 a 6.0023398,5.9980502 0 1 1 -12.00468,0 6.0023398,5.9980502 0 1 1 12.00468,0 z"
       transform="matrix(0.70632247,0.70691606,0.70682763,-0.70742164,-99.310594,914.04217)" />
    <path
       style="fill:#000000;stroke:#000000;stroke-width:0;stroke-linecap:butt;stroke-linejoin:miter;stroke-miterlimit:4;stroke-opacity:1;stroke-dasharray:none;display:inline"
       d="m -92.25,913.9687 206.3266,206.5 c 0,0 -5.66588,-48.0705 67.47854,-121.27631 69.61412,-69.67263 121.18311,-67.54387 121.18311,-67.54387 0,0 -45.90348,-21.94836 -128.25183,60.4692 -77.024053,77.08868 -63.23344,122.69618 -63.23344,122.69618 0,0 -0.96024,-9.4479 -94.628837,-103.1893 C -86.603413,908.31739 -92.25,913.9687 -92.25,913.9687 z"
       id="path4114"
       inkscape:connector-curvature="0"
       sodipodi:nodetypes="ccscscsc" />
    <path
       style="fill:#000000;stroke:#000000;stroke-width:0;stroke-linecap:butt;stroke-linejoin:miter;stroke-miterlimit:4;stroke-opacity:1;stroke-dasharray:none;display:inline"
       d="m -92.25,913.9687 206.3266,206.5 c 0,0 -5.66588,-48.0705 67.47854,-121.27631 69.61412,-69.67263 121.18311,-67.54387 121.18311,-67.54387 0,0 -45.90348,-21.94836 -128.25183,60.4692 -77.024053,77.08868 -63.23344,122.69618 -63.23344,122.69618 0,0 -0.96024,-9.4479 -94.628837,-103.1893 C -86.603413,908.31739 -92.25,913.9687 -92.25,913.9687 z"
       id="path4118"
       inkscape:connector-curvature="0"
       sodipodi:nodetypes="ccscscsc" />
    <path
       sodipodi:nodetypes="ccscscsc"
       inkscape:connector-curvature="0"
       id="path4122"
       d="m -92.25,913.9687 206.3266,206.5 c 0,0 -5.66588,-48.0705 67.47854,-121.27631 69.61412,-69.67263 121.18311,-67.54387 121.18311,-67.54387 0,0 -45.90348,-21.94836 -128.25183,60.4692 -77.024053,77.08868 -63.23344,122.69618 -63.23344,122.69618 0,0 -0.96024,-9.4479 -94.628837,-103.1893 C -86.603413,908.31739 -92.25,913.9687 -92.25,913.9687 z"
       style="fill:#000000;stroke:#000000;stroke-width:0;stroke-linecap:butt;stroke-linejoin:miter;stroke-miterlimit:4;stroke-opacity:1;stroke-dasharray:none;display:inline" />
    <path
       sodipodi:nodetypes="ccscscsc"
       inkscape:connector-curvature="0"
       id="path4126"
       d="m -92.25,913.9687 206.3266,206.5 c 0,0 -5.66588,-48.0705 67.47854,-121.27631 69.61412,-69.67263 121.18311,-67.54387 121.18311,-67.54387 0,0 -45.90348,-21.94836 -128.25183,60.4692 -77.024053,77.08868 -63.23344,122.69618 -63.23344,122.69618 0,0 -0.96024,-9.4479 -94.628837,-103.1893 C -86.603413,908.31739 -92.25,913.9687 -92.25,913.9687 z"
       style="fill:#000000;stroke:#000000;stroke-width:0;stroke-linecap:butt;stroke-linejoin:miter;stroke-miterlimit:4;stroke-opacity:1;stroke-dasharray:none;display:inline" />
    <path
       sodipodi:nodetypes="ccscscsc"
       inkscape:connector-curvature="0"
       id="path4130"
       d="m -92.25,913.9687 206.3266,206.5 c 0,0 -5.66588,-48.0705 67.47854,-121.27631 69.61412,-69.67263 121.18311,-67.54387 121.18311,-67.54387 0,0 -45.90348,-21.94836 -128.25183,60.4692 -77.024053,77.08868 -63.23344,122.69618 -63.23344,122.69618 0,0 -0.96024,-9.4479 -94.628837,-103.1893 C -86.603413,908.31739 -92.25,913.9687 -92.25,913.9687 z"
       style="fill:#000000;stroke:#000000;stroke-width:0;stroke-linecap:butt;stroke-linejoin:miter;stroke-miterlimit:4;stroke-opacity:1;stroke-dasharray:none;display:inline" />
    <path
       style="fill:#000000;stroke:#000000;stroke-width:0;stroke-linecap:butt;stroke-linejoin:miter;stroke-miterlimit:4;stroke-opacity:1;stroke-dasharray:none;display:inline"
       d="m -92.25,913.9687 206.3266,206.5 c 0,0 -5.66588,-48.0705 67.47854,-121.27631 69.61412,-69.67263 121.18311,-67.54387 121.18311,-67.54387 0,0 -45.90348,-21.94836 -128.25183,60.4692 -77.024053,77.08868 -63.23344,122.69618 -63.23344,122.69618 0,0 -0.96024,-9.4479 -94.628837,-103.1893 C -86.603413,908.31739 -92.25,913.9687 -92.25,913.9687 z"
       id="path4134"
       inkscape:connector-curvature="0"
       sodipodi:nodetypes="ccscscsc" />
    <path
       style="fill:#000000;stroke:#000000;stroke-width:0;stroke-linecap:butt;stroke-linejoin:miter;stroke-miterlimit:4;stroke-opacity:1;stroke-dasharray:none;display:inline"
       d="m 4.8550568,780.45289 291.7898732,0 c 0,0 -37.96876,29.98118 -37.96876,133.50993 0,98.53188 37.96876,133.52208 37.96876,133.52208 0,0 -47.96545,-16.9661 -47.96545,-133.52208 0,-109.01999 41.97366,-131.50966 41.97366,-131.50966 0,0 -7.35408,6.00113 -139.81726,5.99692 C 4.8550568,788.44508 4.8550568,780.45289 4.8550568,780.45289 z"
       id="path4138"
       inkscape:connector-curvature="0"
       sodipodi:nodetypes="ccscscsc" />
    <path
       sodipodi:type="arc"
       style="fill:#000000;fill-opacity:1;fill-rule:evenodd;stroke:none;display:inline"
       id="path4140"
       sodipodi:cx="149.00233"
       sodipodi:cy="142.00241"
       sodipodi:rx="6.0023398"
       sodipodi:ry="5.9980502"
       d="m 155.00467,142.00241 a 6.0023398,5.9980502 0 1 1 -12.00468,0 6.0023398,5.9980502 0 1 1 12.00468,0 z"
       transform="matrix(0.99889082,0,0,1.0004453,1.9129356,775.40415)" />
    <path
       sodipodi:nodetypes="ccscscsc"
       inkscape:connector-curvature="0"
       id="path4142"
       d="m 4.8550568,780.45289 291.7898732,0 c 0,0 -37.96876,29.98118 -37.96876,133.50993 0,98.53188 37.96876,133.52208 37.96876,133.52208 0,0 -47.96545,-16.9661 -47.96545,-133.52208 0,-109.01999 41.97366,-131.50966 41.97366,-131.50966 0,0 -7.35408,6.00113 -139.81726,5.99692 C 4.8550568,788.44508 4.8550568,780.45289 4.8550568,780.45289 z"
       style="fill:#000000;stroke:#000000;stroke-width:0;stroke-linecap:butt;stroke-linejoin:miter;stroke-miterlimit:4;stroke-opacity:1;stroke-dasharray:none;display:inline" />
    <path
       transform="matrix(0.99889082,0,0,1.0004453,1.9129356,775.40415)"
       d="m 155.00467,142.00241 a 6.0023398,5.9980502 0 1 1 -12.00468,0 6.0023398,5.9980502 0 1 1 12.00468,0 z"
       sodipodi:ry="5.9980502"
       sodipodi:rx="6.0023398"
       sodipodi:cy="142.00241"
       sodipodi:cx="149.00233"
       id="path4144"
       style="fill:#000000;fill-opacity:1;fill-rule:evenodd;stroke:none;display:inline"
       sodipodi:type="arc" />
    <path
       sodipodi:nodetypes="ccscscsc"
       inkscape:connector-curvature="0"
       id="path4148"
       d="m 4.8550568,780.45289 291.7898732,0 c 0,0 -37.96876,29.98118 -37.96876,133.50993 0,98.53188 37.96876,133.52208 37.96876,133.52208 0,0 -47.96545,-16.9661 -47.96545,-133.52208 0,-109.01999 41.97366,-131.50966 41.97366,-131.50966 0,0 -7.35408,6.00113 -139.81726,5.99692 C 4.8550568,788.44508 4.8550568,780.45289 4.8550568,780.45289 z"
       style="fill:#000000;stroke:#000000;stroke-width:0;stroke-linecap:butt;stroke-linejoin:miter;stroke-miterlimit:4;stroke-opacity:1;stroke-dasharray:none;display:inline" />
    <path
       sodipodi:nodetypes="ccscscsc"
       inkscape:connector-curvature="0"
       id="path4152"
       d="m 4.8550568,780.45289 291.7898732,0 c 0,0 -37.96876,29.98118 -37.96876,133.50993 0,98.53188 37.96876,133.52208 37.96876,133.52208 0,0 -47.96545,-16.9661 -47.96545,-133.52208 0,-109.01999 41.97366,-131.50966 41.97366,-131.50966 0,0 -7.35408,6.00113 -139.81726,5.99692 C 4.8550568,788.44508 4.8550568,780.45289 4.8550568,780.45289 z"
       style="fill:#000000;stroke:#000000;stroke-width:0;stroke-linecap:butt;stroke-linejoin:miter;stroke-miterlimit:4;stroke-opacity:1;stroke-dasharray:none;display:inline" />
    <path
       style="fill:#000000;stroke:#000000;stroke-width:0;stroke-linecap:butt;stroke-linejoin:miter;stroke-miterlimit:4;stroke-opacity:1;stroke-dasharray:none;display:inline"
       d="m 4.8550568,780.45289 291.7898732,0 c 0,0 -37.96876,29.98118 -37.96876,133.50993 0,98.53188 37.96876,133.52208 37.96876,133.52208 0,0 -47.96545,-16.9661 -47.96545,-133.52208 0,-109.01999 41.97366,-131.50966 41.97366,-131.50966 0,0 -7.35408,6.00113 -139.81726,5.99692 C 4.8550568,788.44508 4.8550568,780.45289 4.8550568,780.45289 z"
       id="path4156"
       inkscape:connector-curvature="0"
       sodipodi:nodetypes="ccscscsc" />
    <path
       style="fill:#000000;stroke:#000000;stroke-width:0;stroke-linecap:butt;stroke-linejoin:miter;stroke-miterlimit:4;stroke-opacity:1;stroke-dasharray:none;display:inline"
       d="m 4.8550568,780.45289 291.7898732,0 c 0,0 -37.96876,29.98118 -37.96876,133.50993 0,98.53188 37.96876,133.52208 37.96876,133.52208 0,0 -47.96545,-16.9661 -47.96545,-133.52208 0,-109.01999 41.97366,-131.50966 41.97366,-131.50966 0,0 -7.35408,6.00113 -139.81726,5.99692 C 4.8550568,788.44508 4.8550568,780.45289 4.8550568,780.45289 z"
       id="path4160"
       inkscape:connector-curvature="0"
       sodipodi:nodetypes="ccscscsc" />
    <path
       style="fill:#000000;stroke:#000000;stroke-width:0;stroke-linecap:butt;stroke-linejoin:miter;stroke-miterlimit:4;stroke-opacity:1;stroke-dasharray:none;display:inline"
       d="m 4.8550568,780.45289 291.7898732,0 c 0,0 -37.96876,29.98118 -37.96876,133.50993 0,98.53188 37.96876,133.52208 37.96876,133.52208 0,0 -47.96545,-16.9661 -47.96545,-133.52208 0,-109.01999 41.97366,-131.50966 41.97366,-131.50966 0,0 -7.35408,6.00113 -139.81726,5.99692 C 4.8550568,788.44508 4.8550568,780.45289 4.8550568,780.45289 z"
       id="path4164"
       inkscape:connector-curvature="0"
       sodipodi:nodetypes="ccscscsc" />
    <path
       sodipodi:nodetypes="ccscscsc"
       inkscape:connector-curvature="0"
       id="path4168"
       d="m 4.8550568,780.45289 291.7898732,0 c 0,0 -37.96876,29.98118 -37.96876,133.50993 0,98.53188 37.96876,133.52208 37.96876,133.52208 0,0 -47.96545,-16.9661 -47.96545,-133.52208 0,-109.01999 41.97366,-131.50966 41.97366,-131.50966 0,0 -7.35408,6.00113 -139.81726,5.99692 C 4.8550568,788.44508 4.8550568,780.45289 4.8550568,780.45289 z"
       style="fill:#000000;stroke:#000000;stroke-width:0;stroke-linecap:butt;stroke-linejoin:miter;stroke-miterlimit:4;stroke-opacity:1;stroke-dasharray:none;display:inline" />
    <path
       sodipodi:nodetypes="ccscscsc"
       inkscape:connector-curvature="0"
       id="path4189"
       d="m 296.64493,1047.4849 -291.7898732,0 c 0,0 37.9687682,-29.9812 37.9687682,-133.50987 0,-98.53198 -37.9687682,-133.52214 -37.9687682,-133.52214 0,0 47.9654592,16.96609 47.9654592,133.52214 0,109.01997 -41.973662,131.50967 -41.973662,131.50967 0,0 7.354074,-6.0011 139.817256,-5.9969 145.98082,0.01 145.98082,7.9971 145.98082,7.9971 z"
       style="fill:#000000;stroke:#000000;stroke-width:0;stroke-linecap:butt;stroke-linejoin:miter;stroke-miterlimit:4;stroke-opacity:1;stroke-dasharray:none;display:inline" />
    <path
       transform="matrix(-0.99889082,0,0,-1.0004453,299.58706,1052.5336)"
       d="m 155.00467,142.00241 a 6.0023398,5.9980502 0 1 1 -12.00468,0 6.0023398,5.9980502 0 1 1 12.00468,0 z"
       sodipodi:ry="5.9980502"
       sodipodi:rx="6.0023398"
       sodipodi:cy="142.00241"
       sodipodi:cx="149.00233"
       id="path4191"
       style="fill:#000000;fill-opacity:1;fill-rule:evenodd;stroke:none;display:inline"
       sodipodi:type="arc" />
    <path
       style="fill:#000000;stroke:#000000;stroke-width:0;stroke-linecap:butt;stroke-linejoin:miter;stroke-miterlimit:4;stroke-opacity:1;stroke-dasharray:none;display:inline"
       d="m 296.64493,1047.4849 -291.7898732,0 c 0,0 37.9687682,-29.9812 37.9687682,-133.50987 0,-98.53198 -37.9687682,-133.52214 -37.9687682,-133.52214 0,0 47.9654592,16.96609 47.9654592,133.52214 0,109.01997 -41.973662,131.50967 -41.973662,131.50967 0,0 7.354074,-6.0011 139.817256,-5.9969 145.98082,0.01 145.98082,7.9971 145.98082,7.9971 z"
       id="path4193"
       inkscape:connector-curvature="0"
       sodipodi:nodetypes="ccscscsc" />
    <path
       sodipodi:type="arc"
       style="fill:#000000;fill-opacity:1;fill-rule:evenodd;stroke:none;display:inline"
       id="path4195"
       sodipodi:cx="149.00233"
       sodipodi:cy="142.00241"
       sodipodi:rx="6.0023398"
       sodipodi:ry="5.9980502"
       d="m 155.00467,142.00241 a 6.0023398,5.9980502 0 1 1 -12.00468,0 6.0023398,5.9980502 0 1 1 12.00468,0 z"
       transform="matrix(-0.99889082,0,0,-1.0004453,299.58706,1052.5336)" />
    <path
       style="fill:#000000;stroke:#000000;stroke-width:0;stroke-linecap:butt;stroke-linejoin:miter;stroke-miterlimit:4;stroke-opacity:1;stroke-dasharray:none;display:inline"
       d="m 296.64493,1047.4849 -291.7898732,0 c 0,0 37.9687682,-29.9812 37.9687682,-133.50987 0,-98.53198 -37.9687682,-133.52214 -37.9687682,-133.52214 0,0 47.9654592,16.96609 47.9654592,133.52214 0,109.01997 -41.973662,131.50967 -41.973662,131.50967 0,0 7.354074,-6.0011 139.817256,-5.9969 145.98082,0.01 145.98082,7.9971 145.98082,7.9971 z"
       id="path4199"
       inkscape:connector-curvature="0"
       sodipodi:nodetypes="ccscscsc" />
    <path
       style="fill:#000000;stroke:#000000;stroke-width:0;stroke-linecap:butt;stroke-linejoin:miter;stroke-miterlimit:4;stroke-opacity:1;stroke-dasharray:none;display:inline"
       d="m 296.64493,1047.4849 -291.7898732,0 c 0,0 37.9687682,-29.9812 37.9687682,-133.50987 0,-98.53198 -37.9687682,-133.52214 -37.9687682,-133.52214 0,0 47.9654592,16.96609 47.9654592,133.52214 0,109.01997 -41.973662,131.50967 -41.973662,131.50967 0,0 7.354074,-6.0011 139.817256,-5.9969 145.98082,0.01 145.98082,7.9971 145.98082,7.9971 z"
       id="path4203"
       inkscape:connector-curvature="0"
       sodipodi:nodetypes="ccscscsc" />
    <path
       sodipodi:nodetypes="ccscscsc"
       inkscape:connector-curvature="0"
       id="path4207"
       d="m 296.64493,1047.4849 -291.7898732,0 c 0,0 37.9687682,-29.9812 37.9687682,-133.50987 0,-98.53198 -37.9687682,-133.52214 -37.9687682,-133.52214 0,0 47.9654592,16.96609 47.9654592,133.52214 0,109.01997 -41.973662,131.50967 -41.973662,131.50967 0,0 7.354074,-6.0011 139.817256,-5.9969 145.98082,0.01 145.98082,7.9971 145.98082,7.9971 z"
       style="fill:#000000;stroke:#000000;stroke-width:0;stroke-linecap:butt;stroke-linejoin:miter;stroke-miterlimit:4;stroke-opacity:1;stroke-dasharray:none;display:inline" />
    <path
       sodipodi:nodetypes="ccscscsc"
       inkscape:connector-curvature="0"
       id="path4211"
       d="m 296.64493,1047.4849 -291.7898732,0 c 0,0 37.9687682,-29.9812 37.9687682,-133.50987 0,-98.53198 -37.9687682,-133.52214 -37.9687682,-133.52214 0,0 47.9654592,16.96609 47.9654592,133.52214 0,109.01997 -41.973662,131.50967 -41.973662,131.50967 0,0 7.354074,-6.0011 139.817256,-5.9969 145.98082,0.01 145.98082,7.9971 145.98082,7.9971 z"
       style="fill:#000000;stroke:#000000;stroke-width:0;stroke-linecap:butt;stroke-linejoin:miter;stroke-miterlimit:4;stroke-opacity:1;stroke-dasharray:none;display:inline" />
    <path
       sodipodi:nodetypes="ccscscsc"
       inkscape:connector-curvature="0"
       id="path4215"
       d="m 296.64493,1047.4849 -291.7898732,0 c 0,0 37.9687682,-29.9812 37.9687682,-133.50987 0,-98.53198 -37.9687682,-133.52214 -37.9687682,-133.52214 0,0 47.9654592,16.96609 47.9654592,133.52214 0,109.01997 -41.973662,131.50967 -41.973662,131.50967 0,0 7.354074,-6.0011 139.817256,-5.9969 145.98082,0.01 145.98082,7.9971 145.98082,7.9971 z"
       style="fill:#000000;stroke:#000000;stroke-width:0;stroke-linecap:butt;stroke-linejoin:miter;stroke-miterlimit:4;stroke-opacity:1;stroke-dasharray:none;display:inline" />
    <path
       style="fill:#000000;stroke:#000000;stroke-width:0;stroke-linecap:butt;stroke-linejoin:miter;stroke-miterlimit:4;stroke-opacity:1;stroke-dasharray:none;display:inline"
       d="m 296.64493,1047.4849 -291.7898732,0 c 0,0 37.9687682,-29.9812 37.9687682,-133.50987 0,-98.53198 -37.9687682,-133.52214 -37.9687682,-133.52214 0,0 47.9654592,16.96609 47.9654592,133.52214 0,109.01997 -41.973662,131.50967 -41.973662,131.50967 0,0 7.354074,-6.0011 139.817256,-5.9969 145.98082,0.01 145.98082,7.9971 145.98082,7.9971 z"
       id="path4219"
       inkscape:connector-curvature="0"
       sodipodi:nodetypes="ccscscsc" />
    <g
       inkscape:transform-center-x="-45.505879"
       inkscape:transform-center-y="-103.22251"
       id="g4241"
       style="display:inline"
       transform="matrix(-0.70659792,-0.70719173,-0.70659792,0.70719173,815.63756,733.07788)">
      <path
         sodipodi:nodetypes="ccscscsc"
         inkscape:connector-curvature="0"
         id="path4243"
         d="m 170.64061,426.42817 292.00001,0 c 0,0 -37.99611,29.97758 -37.99611,133.4939 0,98.52014 37.99611,133.5061 37.99611,133.5061 0,0 -48,-16.96406 -48,-133.5061 0,-109.0069 42.00389,-131.49387 42.00389,-131.49387 0,0 -7.35937,6.00041 -139.91795,5.9962 -146.08595,-0.005 -146.08595,-7.99623 -146.08595,-7.99623 z"
         style="fill:#000000;stroke:#000000;stroke-width:0;stroke-linecap:butt;stroke-linejoin:miter;stroke-miterlimit:4;stroke-opacity:1;stroke-dasharray:none" />
    </g>
    <path
       sodipodi:nodetypes="ccscscsc"
       inkscape:connector-curvature="0"
       id="path4247"
       d="m 393.75,913.9687 -206.3266,206.5 c 0,0 5.66588,-48.0705 -67.47853,-121.27631 C 50.330729,929.51976 -1.2382451,931.64852 -1.2382451,931.64852 c 0,0 45.9034741,-21.94836 128.2518351,60.4692 77.02405,77.08868 63.23344,122.69618 63.23344,122.69618 0,0 0.96024,-9.4479 94.62882,-103.1893 C 388.10341,908.31739 393.75,913.9687 393.75,913.9687 z"
       style="fill:#000000;stroke:#000000;stroke-width:0;stroke-linecap:butt;stroke-linejoin:miter;stroke-miterlimit:4;stroke-opacity:1;stroke-dasharray:none;display:inline" />
    <path
       transform="matrix(0.70632247,-0.70691606,0.70682763,0.70742164,-10.419263,913.89527)"
       d="m 155.00467,142.00241 a 6.0023398,5.9980502 0 1 1 -12.00468,0 6.0023398,5.9980502 0 1 1 12.00468,0 z"
       sodipodi:ry="5.9980502"
       sodipodi:rx="6.0023398"
       sodipodi:cy="142.00241"
       sodipodi:cx="149.00233"
       id="path4260"
       style="fill:#000000;fill-opacity:1;fill-rule:evenodd;stroke:none;display:inline"
       sodipodi:type="arc"
       inkscape:transform-center-x="-44.445662"
       inkscape:transform-center-y="-2.4542601" />
    <path
       sodipodi:type="arc"
       style="fill:#000000;fill-opacity:1;fill-rule:evenodd;stroke:none;display:inline"
       id="path4262"
       sodipodi:cx="149.00233"
       sodipodi:cy="142.00241"
       sodipodi:rx="6.0023398"
       sodipodi:ry="5.9980502"
       d="m 155.00467,142.00241 a 6.0023398,5.9980502 0 1 1 -12.00468,0 6.0023398,5.9980502 0 1 1 12.00468,0 z"
       transform="matrix(0.70632247,-0.70691606,0.70682763,0.70742164,-10.419263,913.89527)"
       inkscape:transform-center-x="-44.445662"
       inkscape:transform-center-y="-2.4542601" />
    <path
       sodipodi:type="arc"
       style="fill:#000000;fill-opacity:1;fill-rule:evenodd;stroke:none;display:inline"
       id="path4268"
       sodipodi:cx="149.00233"
       sodipodi:cy="142.00241"
       sodipodi:rx="6.0023398"
       sodipodi:ry="5.9980502"
       d="m 155.00467,142.00241 a 6.0023398,5.9980502 0 1 1 -12.00468,0 6.0023398,5.9980502 0 1 1 12.00468,0 z"
       transform="matrix(-0.70632247,0.70691606,-0.70682763,-0.70742164,400.8106,914.04217)"
       inkscape:transform-center-x="-44.445675"
       inkscape:transform-center-y="-12.375859" />
    <path
       transform="matrix(-0.70632247,0.70691606,-0.70682763,-0.70742164,400.8106,914.04217)"
       d="m 155.00467,142.00241 a 6.0023398,5.9980502 0 1 1 -12.00468,0 6.0023398,5.9980502 0 1 1 12.00468,0 z"
       sodipodi:ry="5.9980502"
       sodipodi:rx="6.0023398"
       sodipodi:cy="142.00241"
       sodipodi:cx="149.00233"
       id="path4270"
       style="fill:#000000;fill-opacity:1;fill-rule:evenodd;stroke:none;display:inline"
       sodipodi:type="arc"
       inkscape:transform-center-x="-44.445675"
       inkscape:transform-center-y="-12.375859" />
  </g>
</svg>
