<?xml version="1.0" encoding="UTF-8" standalone="no"?>
<!-- Created with Inkscape (http://www.inkscape.org/) -->

<svg
   xmlns:dc="http://purl.org/dc/elements/1.1/"
   xmlns:cc="http://creativecommons.org/ns#"
   xmlns:rdf="http://www.w3.org/1999/02/22-rdf-syntax-ns#"
   xmlns:svg="http://www.w3.org/2000/svg"
   xmlns="http://www.w3.org/2000/svg"
   xmlns:sodipodi="http://sodipodi.sourceforge.net/DTD/sodipodi-0.dtd"
   xmlns:inkscape="http://www.inkscape.org/namespaces/inkscape"
   width="243.37784mm"
   height="282.86429mm"
   viewBox="0 0 243.37784 282.86429"
   version="1.1"
   id="svg8"
   inkscape:version="0.92.4 (5da689c313, 2019-01-14)"
   sodipodi:docname="Roshar_glyph.svg">
  <defs
     id="defs2" />
  <sodipodi:namedview
     id="base"
     pagecolor="#ffffff"
     bordercolor="#666666"
     borderopacity="1.0"
     inkscape:pageopacity="0.0"
     inkscape:pageshadow="2"
     inkscape:zoom="0.35"
     inkscape:cx="519.17173"
     inkscape:cy="336.38958"
     inkscape:document-units="mm"
     inkscape:current-layer="layer1"
     showgrid="false"
     inkscape:window-width="1920"
     inkscape:window-height="1017"
     inkscape:window-x="-8"
     inkscape:window-y="-7"
     inkscape:window-maximized="1" />
  <metadata
     id="metadata5">
    <rdf:RDF>
      <cc:Work
         rdf:about="">
        <dc:format>image/svg+xml</dc:format>
        <dc:type
           rdf:resource="http://purl.org/dc/dcmitype/StillImage" />
        <dc:title></dc:title>
      </cc:Work>
    </rdf:RDF>
  </metadata>
  <g
     inkscape:label="Layer 1"
     inkscape:groupmode="layer"
     id="layer1"
     transform="translate(125.6493,5.0654664)">
    <path
       style="fill:#000000;stroke-width:0.67752022"
       d="m -5.791396,274.57557 c -2.1155837,-4.84508 -5.481924,-17.97769 -6.744191,-26.31013 -1.43988,-9.50488 -1.618962,-35.21116 -0.326687,-46.89469 0.507186,-4.58551 0.756981,-8.50247 0.5551,-8.70436 -0.349304,-0.3493 -1.298603,2.63446 -2.145191,6.74255 -0.21492,1.04295 -1.457881,3.0247 -2.762121,4.40388 l -2.371342,2.50762 0.465857,-2.7101 c 0.256224,-1.49054 1.281943,-4.53936 2.279379,-6.77519 0.997434,-2.23581 2.368456,-6.12836 3.046708,-8.65009 1.053774,-3.91794 1.110632,-5.00221 0.390794,-7.45273 -0.463324,-1.57727 -1.716572,-3.78352 -2.784996,-4.90283 -1.068429,-1.11929 -2.403128,-3.34039 -2.966007,-4.93574 -1.551662,-4.39788 -0.677852,-7.5084 4.153343,-14.7847 1.841534,-2.77355 2.209351,-3.86218 1.832597,-5.42393 -1.878974,-7.78875 -8.942421,-14.72273 -17.138286,-16.82412 l -2.971597,-0.76189 4.665397,-1.88445 c 4.907163,-1.98209 7.099911,-3.64342 11.271224,-8.5397 1.926069,-2.26082 2.534897,-3.56739 2.51669,-5.40101 -0.02981,-3.00402 -0.846336,-4.48462 -4.759564,-8.63053 -8.35745,-8.854409 -8.791252,-12.543593 -2.321193,-19.739868 3.561643,-3.961387 4.896913,-4.299272 2.004588,-0.50725 -1.49757,1.963421 -1.774549,2.886171 -1.455844,4.850131 0.38755,2.388165 3.359823,7.042067 4.497502,7.042067 0.762393,0 3.413564,-5.493916 3.413564,-7.073795 0,-1.011274 -0.370137,-1.15178 -2.114887,-0.802832 -2.08769,0.417549 -2.100698,0.403388 -1.011604,-1.100976 3.179715,-4.392097 3.312524,-4.657771 2.656474,-5.313798 -0.443579,-0.443591 -0.965763,-0.31681 -1.538716,0.37353 -1.753131,2.112404 -2.052004,0.966667 -0.387012,-1.483596 0.945026,-1.390719 1.718223,-2.897157 1.718223,-3.347611 0,-1.609404 -1.482656,-1.692832 -3.098997,-0.174384 -0.904001,0.849284 -1.643643,1.253926 -1.643643,0.899269 0,-1.661079 5.786658,-8.399116 7.213204,-8.399116 1.601937,0 2.2185015,2.203462 1.179029,4.21359 -0.535871,1.036241 -0.814033,1.92222 -0.618149,1.968799 0.195894,0.0466 0.737263,0.128036 1.2030577,0.181042 0.4885597,0.05557 0.759677,0.808057 0.6407579,1.778513 -0.1994534,1.62761 -0.2163797,3.418338 -0.062276,6.587698 0.040587,0.834816 -0.9052356,3.399005 -2.1018436,5.698211 -2.626923,5.047485 -2.459392,7.841596 0.663333,11.063426 2.3641316,2.43918 3.5645701,5.87211 2.9461084,8.42511 -1.7650205,7.28603 -5.8971224,12.01691 -13.4376434,15.38488 -4.57461,2.04323 -5.4578,2.9656 -2.839636,2.9656 3.78311,0 10.796257,6.25417 13.260795,11.82567 1.0319269,2.33283 1.626761,2.96502 2.4812917,2.6371 0.9662978,-0.37079 1.0074176,-0.24455 0.2931138,0.89911 -0.6680217,1.06969 -0.6030591,2.45001 0.3314373,7.04281 1.7945889,8.81997 2.0556375,17.00214 0.8336276,26.12896 -2.9438185,21.98656 -3.7589174,47.88398 -1.9376479,61.56337 1.0135582,7.6128 4.1379551,21.3419 4.8568708,21.3419 0.7189182,0 3.8433151,-13.7291 4.8568733,-21.3419 1.8212689,-13.67939 1.0061706,-39.57681 -1.9376479,-61.56337 -1.2220099,-9.12682 -0.9609613,-17.30899 0.83362764,-26.12896 0.9344964,-4.5928 0.99945639,-5.97312 0.33143731,-7.04281 -0.71430384,-1.14376 -0.67318403,-1.2699 0.29311378,-0.89911 0.85453067,0.32792 1.44936477,-0.30427 2.48128837,-2.6371 2.4645413,-5.5715 9.4776872,-11.82567 13.2607852,-11.82567 2.618168,0 1.734981,-0.92237 -2.839644,-2.9656 -7.5405005,-3.36797 -11.6726018,-8.09885 -13.43762226,-15.38488 -0.61846174,-2.553 0.58197679,-5.98593 2.94610776,-8.42511 3.1227247,-3.22183 3.2902564,-6.015941 0.663333,-11.063426 -1.1966078,-2.299206 -2.1424404,-4.863395 -2.101843,-5.698211 0.1541033,-3.16936 0.1371771,-4.960088 -0.062276,-6.587698 -0.1189192,-0.970456 0.1522083,-1.722997 0.6407578,-1.778513 0.465795,-0.05301 1.0071743,-0.134437 1.2030581,-0.181042 0.195894,-0.0466 -0.082276,-0.932558 -0.6181493,-1.968799 -1.0394726,-2.010128 -0.4229083,-4.21359 1.1790284,-4.21359 1.4265464,0 7.2132045,6.738037 7.2132045,8.399116 0,0.354657 -0.739642,-0.04993 -1.6436431,-0.899269 -1.6163407,-1.518473 -3.0989972,-1.435045 -3.0989972,0.174384 0,0.450454 0.7731975,1.956892 1.7182235,3.347611 1.6649916,2.450263 1.3661188,3.596 -0.3870123,1.483596 -0.5729529,-0.69034 -1.0951372,-0.817121 -1.5387155,-0.37353 -0.6560503,0.656027 -0.5232419,0.921701 2.6564739,5.313798 1.089094,1.504364 1.0760856,1.518525 -1.0116043,1.100976 -1.7447499,-0.348948 -2.1148872,-0.208442 -2.1148872,0.802832 0,1.579879 2.6511707,7.073795 3.4135646,7.073795 1.1376786,0 4.1099486,-4.653902 4.4975116,-7.042067 0.318706,-1.96396 0.04174,-2.88671 -1.455853,-4.850131 -2.8923259,-3.792022 -1.557056,-3.454137 2.004587,0.50725 6.470059,7.196275 6.03625,10.885459 -2.321193,19.739868 -3.9132279,4.14591 -4.7297551,5.62651 -4.7595643,8.63053 -0.018181,1.83362 0.5906217,3.14019 2.5166876,5.40101 4.1713087,4.89628 6.3640667,6.55761 11.2712247,8.5397 l 4.665402,1.88445 -2.971597,0.76189 c -8.195873,2.10139 -15.2593149,9.03537 -17.1382893,16.82412 -0.3767541,1.56175 -0.00896,2.65038 1.8325975,5.42393 4.8311948,7.2763 5.7050158,10.38682 4.1533428,14.7847 -0.562879,1.59535 -1.8975784,3.81645 -2.9660074,4.93574 -1.0684239,1.11931 -2.3216719,3.32556 -2.7849958,4.90283 -0.7198375,2.45052 -0.6629796,3.53479 0.3907945,7.45273 0.6782517,2.52173 2.0492742,6.41428 3.0467051,8.65009 0.9974385,2.23583 2.0231576,5.28465 2.2793816,6.77519 l 0.465857,2.7101 -2.3713423,-2.50762 c -1.3042393,-1.37918 -2.5471907,-3.36093 -2.762121,-4.40388 -0.8465873,-4.10809 -1.7958872,-7.09185 -2.1451905,-6.74255 -0.2018861,0.20179 0.047911,4.11885 0.5550996,8.70436 1.2922757,11.68353 1.1131927,37.38981 -0.3266872,46.89469 -1.7518431,11.5642 -6.9693048,29.53337 -8.5751978,29.53337 -0.2329731,0 -1.0569315,-1.45046 -1.8310048,-3.22324 z m -5.280611,-108.73698 c -0.170774,-1.58369 -0.491758,-4.63254 -0.713308,-6.77519 -0.221552,-2.14267 -0.662119,-3.89573 -0.979043,-3.89573 -1.063599,0 -2.180287,4.77925 -1.706626,7.30408 0.556339,2.96556 2.164765,6.24631 3.06231,6.24631 0.358387,0 0.508613,-1.28484 0.336667,-2.87947 z m 16.1826558,0.99287 c 1.5460263,-2.98968 1.9785706,-6.60545 1.1063377,-9.24833 -0.4384517,-1.32852 -1.0564858,-2.41546 -1.3734091,-2.41546 -0.3169232,0 -0.7574952,1.75306 -0.9790424,3.89573 -0.2215523,2.14265 -0.5425394,5.1915 -0.7133077,6.77519 -0.3560713,3.30216 0.5324297,3.75239 1.9594215,0.99287 z m -81.9285598,31.33717 c 0.495753,-3.87199 4.348207,-10.27068 8.437117,-14.01351 4.800197,-4.39392 10.959341,-7.29904 22.075394,-10.41247 4.844269,-1.35679 10.535959,-3.3765 12.648195,-4.48818 4.023589,-2.11768 4.870532,-3.35368 5.706503,-8.3279 0.250514,-1.49054 0.721044,-3.22511 1.045636,-3.8546 0.642046,-1.24515 -0.383204,-2.39839 -1.100461,-1.23785 -0.667845,1.08062 -3.543484,0.80514 -3.999461,-0.38311 -0.708952,-1.8475 -0.452231,-4.3343 0.67968,-6.58406 1.231001,-2.44668 5.615104,-7.24969 6.617395,-7.24969 0.361963,0 -0.041,0.74417 -0.895446,1.65368 -1.519047,1.61696 -2.124134,6.10001 -1.056499,7.82749 0.827925,1.3396 2.740212,0.6063 4.406422,-1.68969 2.283218,-3.14621 3.14108,-3.01443 1.10253,0.16927 -0.894726,1.3974 -1.808639,3.99452 -2.030921,5.77139 -0.222269,1.77688 -1.056594,4.66292 -1.854028,6.41339 -1.774431,3.89512 -8.703999,10.96295 -12.794453,13.04975 -3.310432,1.68886 -2.932749,1.56059 -14.715223,4.99663 -9.455494,2.75744 -15.682415,5.66487 -17.742989,8.28449 -0.948947,1.20638 -1.423881,2.78879 -1.423881,4.74405 0,2.31554 -0.443207,3.43867 -2.102749,5.3288 -2.653634,3.02232 -3.389505,3.02281 -3.002761,0.002 z m 142.712274,-0.002 c -1.659543,-1.89013 -2.102724,-3.01326 -2.102724,-5.3288 0,-1.95525 -0.47496,-3.53767 -1.423881,-4.74404 -2.0606,-2.61963 -8.28752,-5.52706 -17.743004,-8.2845 -11.782475,-3.43603 -11.404796,-3.30777 -14.715226,-4.99663 -4.090446,-2.0868 -11.020024,-9.15463 -12.794466,-13.04974 -0.797429,-1.75048 -1.631733,-4.63652 -1.854028,-6.41339 -0.222269,-1.77688 -1.136185,-4.374 -2.030896,-5.7714 -2.038562,-3.1838 -1.1807,-3.31558 1.102512,-0.16926 1.666226,2.29598 3.57851,3.02929 4.406438,1.68968 1.067635,-1.72748 0.46254,-6.21053 -1.056522,-7.82749 -0.854456,-0.90951 -1.257409,-1.65368 -0.895428,-1.65368 1.002286,0 5.386394,4.80302 6.617377,7.24969 1.131935,2.24976 1.388645,4.73657 0.679688,6.58407 -0.455959,1.18824 -3.331606,1.46372 -3.999464,0.3831 -0.717254,-1.16054 -1.742509,-0.008 -1.100464,1.23785 0.324595,0.6295 0.795151,2.36407 1.045639,3.8546 0.835968,4.97423 1.682922,6.21023 5.706508,8.32791 2.11225,1.11167 7.803931,3.13138 12.648198,4.48817 11.116051,3.11344 17.275189,6.01856 22.075386,10.41247 4.088936,3.74283 7.94139,10.14152 8.437117,14.01352 0.386744,3.02079 -0.349126,3.0203 -3.00276,-0.002 z m -96.067325,-0.48456 c 3.458077,-4.658 4.127961,-10.48804 1.701233,-14.80582 -0.811616,-1.44406 -2.031152,-2.80188 -2.710079,-3.01736 -1.700719,-0.5398 -1.573521,-1.0375 1.036957,-4.05736 l 2.27138,-2.62762 1.850328,1.21239 c 3.869657,2.53549 4.894764,10.48986 2.07126,16.07194 -1.643671,3.24956 -6.339015,9.42578 -7.165744,9.42578 -0.379527,0 0.04561,-0.99089 0.944665,-2.20195 z M 19.853609,196.327 c -3.795324,-5.0882 -4.945389,-7.66814 -5.335359,-11.96866 -0.41381,-4.5638 0.897246,-8.21155 3.584118,-9.97206 l 1.850315,-1.21239 2.271398,2.62762 c 2.61046,3.01986 2.737676,3.51756 1.036958,4.05736 -0.678946,0.21535 -1.898482,1.5733 -2.710098,3.01736 -2.42673,4.31778 -1.756824,10.14782 1.701231,14.80582 0.899115,1.21106 1.324192,2.20195 0.94467,2.20195 -0.379523,0 -1.883963,-1.60065 -3.343233,-3.557 z m -66.190887,-35.10454 -2.678204,-2.75294 2.557292,-2.35278 2.557295,-2.35277 2.68128,2.22628 c 1.474695,1.22442 2.686767,2.54754 2.693481,2.94025 0.01204,0.69605 -4.121134,5.04492 -4.794561,5.04492 -0.186112,0 -1.543573,-1.23884 -3.016583,-2.75296 z m 79.095899,0.51877 c -1.19101,-1.2288 -2.159981,-2.52457 -2.153272,-2.87946 0.0077,-0.35489 1.218793,-1.6471 2.693478,-2.87152 l 2.68129,-2.22628 2.5573,2.35277 2.557275,2.35278 -2.678191,2.75294 c -1.473021,1.51412 -2.86141,2.75296 -3.085318,2.75296 -0.223806,0 -1.381578,-1.00538 -2.572562,-2.23419 z m -104.809778,-6.16185 c -4.057157,-1.27651 -5.48324,-2.17363 -12.818254,-8.06371 -12.188423,-9.78741 -18.902719,-13.40604 -25.106189,-13.53083 -4.03378,-0.0812 -11.88657,2.38784 -13.59338,4.27385 -0.66002,0.72931 -1.52241,1.32601 -1.91643,1.32601 -1.32573,0 5.74138,-6.57113 8.60546,-8.00152 5.27142,-2.63268 10.50588,-3.62624 14.67914,-2.78633 4.37187,0.87994 10.592491,4.16973 15.684071,8.29459 5.124126,4.15126 13.498352,9.75253 16.381707,10.95729 1.34432,0.56169 3.971348,1.02126 5.837821,1.02126 3.243263,0 3.507144,-0.14366 5.956106,-3.2418 5.908043,-7.47424 10.566297,-10.06811 12.505254,-6.96336 0.77614,1.24279 0.920389,1.25326 2.709171,0.19666 1.402319,-0.82836 2.086363,-0.91911 2.653488,-0.35199 0.420258,0.42026 1.719004,0.61162 2.886108,0.42526 1.717609,-0.27431 2.488652,0.0458 4.045913,1.68043 2.144115,2.25043 1.958433,3.23156 -1.164379,6.15241 l -1.73622,1.62392 -1.321768,-1.62392 -1.321775,-1.62392 -2.117691,2.02065 c -1.766431,1.68551 -2.223031,1.85405 -2.752772,1.01629 -0.349288,-0.55242 -0.646821,-1.46173 -0.661171,-2.02068 -0.01562,-0.60898 -0.989816,0.054 -2.430771,1.6544 -2.542518,2.82374 -3.628108,2.58365 -3.651191,-0.8075 -0.01997,-2.93177 -2.791397,-1.83792 -7.48267,2.95332 -4.269951,4.36096 -7.497081,6.40942 -9.952081,6.31726 -0.664094,-0.0256 -2.426961,-0.42902 -3.917497,-0.89799 z m 128.728821,0.005 c -1.117902,-0.52154 -4.005507,-2.96284 -6.416873,-5.42506 -4.691342,-4.79031 -7.462717,-5.88381 -7.482665,-2.95239 -0.02305,3.39114 -1.108683,3.63123 -3.651183,0.80749 -1.44096,-1.60036 -2.41513,-2.26338 -2.430776,-1.65439 -0.01536,0.55895 -0.311894,1.46826 -0.661174,2.02068 -0.529733,0.83776 -0.986333,0.66921 -2.752759,-1.0163 l -2.117704,-2.02065 -1.32176,1.62392 -1.321785,1.62393 -1.73621,-1.62393 c -3.122807,-2.92084 -3.308509,-3.90198 -1.164379,-6.1524 1.557243,-1.63447 2.328297,-1.95474 4.045916,-1.68044 1.167093,0.18642 2.465832,-0.005 2.886095,-0.42525 0.56712,-0.56712 1.251187,-0.4764 2.653481,0.35199 1.788781,1.05665 1.933051,1.04618 2.709175,-0.19666 1.938967,-3.10476 6.597224,-0.51089 12.50526,6.96335 2.448957,3.09817 2.712837,3.24178 5.9561,3.24178 1.866473,0 4.493501,-0.45955 5.837821,-1.02124 2.883355,-1.20476 11.257581,-6.80602 16.381707,-10.95728 5.09158,-4.12487 11.312201,-7.41466 15.684095,-8.29459 4.173234,-0.83991 9.407724,0.15364 14.679124,2.78633 2.86409,1.43051 9.93121,8.00164 8.60548,8.00164 -0.39404,0 -1.25644,-0.59669 -1.91646,-1.32601 -1.70681,-1.88601 -9.55958,-4.35497 -13.59335,-4.27384 -6.23645,0.12547 -12.920969,3.74272 -25.301573,13.69178 -9.616424,7.72778 -15.496574,10.04394 -20.075603,7.90762 z m -62.9968395,-17.46325 -1.8017179,-2.14123 2.080251,-2.08024 2.0802511,-2.08024 2.0802536,2.08024 2.08025105,2.08024 -1.80171795,2.14123 c -0.9909471,1.1778 -2.0523982,2.14134 -2.3587867,2.14134 -0.3063859,0 -1.367837,-0.96354 -2.3587842,-2.14121 z m -60.6142815,-2.90317 -2.9559,-3.01185 2.467598,-2.4676 c 1.3572,-1.3572 2.718702,-2.36471 3.025603,-2.23895 0.306875,0.12573 1.729885,1.53742 3.162216,3.13702 l 2.604263,2.90832 -2.270398,2.34245 c -1.248703,1.28847 -2.451979,2.34256 -2.673941,2.34256 -0.222013,0 -1.7337,-1.35533 -3.359441,-3.01182 z m 119.912745,0.66939 -2.270399,-2.34245 2.604264,-2.90832 c 1.43233,-1.5996 2.85534,-3.01127 3.162241,-3.13702 0.306875,-0.12573 1.668403,0.88175 3.025577,2.23895 l 2.467599,2.4676 -2.9559,3.01185 c -1.625741,1.65662 -3.137505,3.01195 -3.359442,3.01195 -0.222013,0 -1.425212,-1.05409 -2.67394,-2.34243 z m -90.138166,-1.18294 c -1.304227,-0.80857 -3.392731,-2.55195 -4.641116,-3.87419 -1.979462,-2.09656 -2.224772,-2.73968 -1.917848,-5.02798 l 0.351943,-2.62393 -4.227977,0.45279 c -10.597974,1.13495 -23.984369,-3.99504 -31.355131,-12.01601 -1.444111,-1.57151 -4.141482,-5.13276 -5.994153,-7.91389 -1.85267,-2.78111 -6.295342,-8.013475 -9.872623,-11.627476 -7.344537,-7.419953 -13.550307,-11.152259 -19.533247,-11.747828 -1.88455,-0.1877 -4.57165,-0.860167 -5.97131,-1.494608 -2.4941,-1.130551 -2.5087,-1.158565 -0.73203,-1.406006 2.33744,-0.325517 13.06552,3.270764 18.89484,6.333983 8.586404,4.512041 16.134572,11.864238 25.526166,24.863455 5.662797,7.83807 9.649279,10.94792 15.216331,11.87026 2.646269,0.43842 5.557154,0.48251 7.65691,0.116 8.191937,-1.42995 14.988448,-0.25582 21.518833,3.71758 l 2.871893,1.74737 -3.465888,-0.43365 c -3.118538,-0.39018 -3.576873,-0.2752 -4.573262,1.14735 -1.691387,2.4148 -1.356775,4.68402 1.058097,7.17553 2.533967,2.61441 2.403476,2.73374 -0.810428,0.74125 z m 65.550086,-0.63034 c 2.447293,-2.60642 2.787303,-4.86972 1.094549,-7.28644 -0.996371,-1.42255 -1.454712,-1.53753 -4.573242,-1.14735 l -3.46589,0.43365 2.871883,-1.74737 c 6.530389,-3.97337 13.326887,-5.14753 21.518842,-3.71758 2.099754,0.36651 5.010636,0.32242 7.656921,-0.116 5.567027,-0.92234 9.553508,-4.03219 15.216305,-11.87026 9.391594,-12.999217 16.939762,-20.351414 25.526168,-24.863455 5.829316,-3.063219 16.557396,-6.6595 18.894866,-6.333983 1.77664,0.247364 1.76207,0.275455 -0.73206,1.406006 -1.39966,0.634441 -4.08673,1.307036 -5.97131,1.494608 -5.98294,0.595569 -12.188705,4.327875 -19.533245,11.747828 -3.577255,3.614001 -8.019952,8.846366 -9.872623,11.627476 -1.852671,2.78113 -4.550042,6.34238 -5.994152,7.91389 -7.370762,8.02097 -20.757161,13.15096 -31.355129,12.01601 l -4.227982,-0.45279 0.351943,2.62393 c 0.306824,2.28741 0.06094,2.93329 -1.917841,5.03607 -1.248395,1.3267 -3.48932,3.12511 -4.979882,3.99649 l -2.710072,1.58436 z m -34.6504502,-11.73108 -1.7821644,-2.33655 1.8642043,-1.72858 c 1.0253119,-0.95071 2.0228785,-1.7286 2.216811,-1.7286 0.1939223,0 1.1915016,0.77789 2.2168135,1.7286 l 1.86420427,1.72858 -1.78216437,2.33655 c -0.9801871,1.28509 -2.0146739,2.33651 -2.2988534,2.33651 -0.2841769,0 -1.3186638,-1.05142 -2.2988509,-2.33651 z m -20.3980728,-3.10558 c -6.740262,-1.06983 -19.480792,-8.25331 -24.629424,-13.88673 -4.641882,-5.07893 -6.528979,-8.718566 -10.015751,-19.317201 -3.800575,-11.552523 -5.923067,-15.268671 -11.256045,-19.707834 -5.133704,-4.273255 -8.012424,-5.597345 -17.688026,-8.13585 -4.099153,-1.075471 -7.601968,-2.104337 -7.784009,-2.286352 -0.834176,-0.834201 0.683222,-1.065228 2.723618,-0.414681 1.238947,0.395015 5.606385,1.66387 9.705384,2.819671 7.642529,2.154987 16.181793,5.985189 19.698897,8.835793 4.984184,4.039667 10.349972,10.239111 12.607524,14.566295 2.742345,5.256438 6.532441,14.310711 8.34402,19.933309 1.666876,5.17347 2.865755,7.4379 5.290926,9.99343 2.47359,2.60655 3.178842,2.74936 3.178842,0.64364 0,-3.29177 2.549237,-3.98321 7.113962,-1.92957 l 2.710082,1.21923 -1.863182,0.46971 c -2.047472,0.51616 -2.396051,2.05612 -0.909036,4.0159 0.71654,0.94436 1.270812,1.06392 2.596129,0.56005 2.679241,-1.01865 3.383056,-4.11828 1.426118,-6.28067 -1.41733,-1.56612 -0.255686,-1.62727 2.679357,-0.14109 3.180118,1.61035 4.542359,2.99625 4.518071,4.59657 -0.05109,3.36326 -3.577375,5.21933 -8.447457,4.44631 z m 40.726366,-0.0653 c -3.505184,-0.93744 -4.972361,-4.77384 -2.615858,-6.84003 1.497444,-1.31295 5.263782,-3.23552 6.338433,-3.23552 0.525304,0 0.416576,0.44151 -0.305133,1.23899 -1.956917,2.16239 -1.253107,5.26202 1.426134,6.28067 1.325319,0.50387 1.879584,0.38431 2.59612,-0.56005 1.487028,-1.95981 1.138439,-3.49974 -0.909025,-4.0159 l -1.863195,-0.46971 2.710098,-1.21923 c 4.564714,-2.05364 7.113949,-1.3622 7.113949,1.92957 0,2.10569 0.705244,1.96291 3.17886,-0.64366 2.425168,-2.55554 3.624039,-4.81994 5.290905,-9.99341 1.811598,-5.622598 5.601673,-14.676871 8.344036,-19.933309 2.257544,-4.327184 7.623324,-10.526628 12.607508,-14.566295 3.51713,-2.850604 12.056368,-6.680831 19.698898,-8.835793 4.098999,-1.155801 8.466436,-2.424656 9.705409,-2.819671 2.04037,-0.650547 3.557768,-0.41952 2.723592,0.414655 -0.182066,0.182067 -3.68483,1.210907 -7.784009,2.286352 -9.675602,2.538505 -12.554322,3.862621 -17.688,8.135876 -5.333004,4.439138 -7.455496,8.155311 -11.25607,19.707809 -3.48676,10.59866 -5.373873,14.238266 -10.015741,19.317226 -7.125267,7.79617 -23.297714,15.42584 -29.296911,13.82143 z m -77.649802,-7.70278 c -2.536763,-2.61727 -2.618911,-2.37848 1.910185,-5.55432 1.515707,-1.06282 1.662769,-1.01297 4.047334,1.37159 l 2.474472,2.47446 -2.353522,2.01154 c -1.294437,1.10632 -2.674829,2.02393 -3.067514,2.03906 -0.392709,0.0154 -1.74763,-1.0389 -3.010955,-2.34233 z m 113.162263,0.30327 -2.353545,-2.01154 2.474487,-2.47446 c 2.384556,-2.38456 2.531617,-2.43441 4.047325,-1.37159 4.529095,3.17584 4.446973,2.93705 1.910184,5.55432 -1.263325,1.30343 -2.618245,2.35746 -3.010955,2.34233 -0.392684,-0.0154 -1.773059,-0.93274 -3.067496,-2.03906 z m -89.645529,-14.724244 -2.522956,-2.583752 2.309639,-2.238595 2.309639,-2.238595 2.606351,2.408088 2.606345,2.408063 -2.393026,2.414285 -2.393028,2.414259 z m 67.280911,0.203321 -2.2947,-2.367527 1.649812,-1.763789 c 2.865584,-3.0635 3.600967,-3.153612 5.950774,-0.729238 l 2.135116,2.202874 -2.573151,2.51259 -2.573151,2.512616 z M -4.6379106,81.63533 c 0,-3.231329 -1.3722286,-7.272123 -3.1286784,-9.212959 -1.9635571,-2.169712 0.9294006,-5.227656 2.9931735,-3.163881 0.632351,0.632341 0.9936999,0.632341 1.6260484,0 1.21052,-1.210522 2.43349018,-0.987562 3.28226183,0.598361 0.59198147,1.106148 0.52945415,1.661027 -0.2890858,2.56552 -1.75644973,1.940836 -3.12867843,5.98163 -3.12867843,9.212959 0,1.688837 -0.3048853,3.07062 -0.6775218,3.07062 -0.372634,0 -0.6775193,-1.381783 -0.6775193,-3.07062 z M -23.959491,75.233463 c 1.064281,-1.110886 3.108631,-2.833063 4.543011,-3.827078 7.131156,-4.941907 1.150896,-9.435101 -7.147236,-5.370005 l -3.294003,1.61368 2.277723,-2.397743 c 3.943533,-4.151366 11.202848,-6.411342 13.764648,-4.285239 1.409113,1.169474 1.314625,2.62754 -0.346891,5.352848 -0.763956,1.253108 -1.238404,2.428958 -1.05433,2.613047 0.184063,0.184115 1.567111,-0.688753 3.073423,-1.939606 5.0952422,-4.231132 5.019983,-3.755942 5.3467317,-33.759556 0.2419867,-22.221346 0.462251,-27.0036187 1.30279,-28.2864556 1.2686762,-1.9362523 1.7977923,-1.9362523 3.0664686,0 0.8405389,1.2828369 1.0607929,6.0651096 1.3027899,28.2864556 0.32674867,30.003614 0.25148696,29.528424 5.3467313,33.759556 1.5063123,1.250853 2.8893471,2.12367 3.0734235,1.939606 C 7.4798525,68.748859 7.0054151,67.573034 6.2414592,66.319926 4.5799425,63.594618 4.485455,62.136552 5.894568,60.967078 c 2.5617996,-2.126103 9.82112,0.133925 13.764658,4.285239 l 2.277723,2.397743 -3.294016,-1.61368 c -8.298129,-4.065096 -14.2783894,0.428098 -7.147233,5.370005 1.434375,0.994015 3.47874,2.716192 4.543021,3.827078 3.327304,3.472983 0.256506,2.387192 -5.54314,-1.959965 C 4.5655513,68.828625 0.38728304,64.62479 -1.8788241,60.823345 c -0.8330105,-1.397377 -1.7697168,-2.540681 -2.0815672,-2.540681 -0.3118479,0 -1.2485542,1.143304 -2.0815647,2.540681 -2.2661071,3.801445 -6.444375,8.00528 -12.374405,12.450153 -5.799653,4.347157 -8.870452,5.432948 -5.54313,1.959965 z M -6.0008567,0.3462787 -7.6000023,-1.3559507 -6.2152185,-3.2107213 c 0.7616359,-1.0201085 1.7763029,-1.8547451 2.2548272,-1.8547451 0.4785268,0 1.4931938,0.8346366 2.2548297,1.8547451 l 1.3847838,1.8547706 -1.5991456,1.7022294 c -0.879536,0.9362198 -1.7977463,1.7022038 -2.0404679,1.7022038 -0.2427294,0 -1.1609294,-0.765984 -2.0404654,-1.7022038 z"
       id="path850"
       inkscape:connector-curvature="0" />
  </g>
</svg>
