<?xml version="1.0" encoding="UTF-8" standalone="no"?>
<!-- Created with Inkscape (http://www.inkscape.org/) -->

<svg
   xmlns:dc="http://purl.org/dc/elements/1.1/"
   xmlns:cc="http://creativecommons.org/ns#"
   xmlns:rdf="http://www.w3.org/1999/02/22-rdf-syntax-ns#"
   xmlns:svg="http://www.w3.org/2000/svg"
   xmlns="http://www.w3.org/2000/svg"
   xmlns:sodipodi="http://sodipodi.sourceforge.net/DTD/sodipodi-0.dtd"
   xmlns:inkscape="http://www.inkscape.org/namespaces/inkscape"
   width="282.22229mm"
   height="236.5195mm"
   viewBox="0 0 1000.0002 838.06121"
   id="svg2"
   version="1.1"
   inkscape:version="0.91 r13725"
   sodipodi:docname="Ettmetal.svg">
  <defs
     id="defs4" />
  <sodipodi:namedview
     id="base"
     pagecolor="#ffffff"
     bordercolor="#666666"
     borderopacity="1.0"
     inkscape:pageopacity="0.0"
     inkscape:pageshadow="2"
     inkscape:zoom="0.98994949"
     inkscape:cx="513.26746"
     inkscape:cy="645.91527"
     inkscape:document-units="px"
     inkscape:current-layer="layer1"
     showgrid="false"
     inkscape:window-width="1366"
     inkscape:window-height="705"
     inkscape:window-x="-8"
     inkscape:window-y="-8"
     inkscape:window-maximized="1"
     fit-margin-top="0"
     fit-margin-left="0"
     fit-margin-right="0"
     fit-margin-bottom="0" />
  <metadata
     id="metadata7">
    <rdf:RDF>
      <cc:Work
         rdf:about="">
        <dc:format>image/svg+xml</dc:format>
        <dc:type
           rdf:resource="http://purl.org/dc/dcmitype/StillImage" />
        <dc:title></dc:title>
      </cc:Work>
    </rdf:RDF>
  </metadata>
  <g
     inkscape:label="Layer 1"
     inkscape:groupmode="layer"
     id="layer1"
     transform="translate(186.99904,-96.697681)">
    <path
       style="fill:#000000"
       d="m 260.61164,930.76561 c 0.0796,-11.11039 3.52488,-16.13669 15.92314,-23.23025 l 12.90941,-7.38601 4.19852,-65.15455 c 2.30917,-35.83498 4.73263,-70.86721 5.38548,-77.84936 l 1.18698,-12.69482 -9.28142,-1.53417 c -5.10475,-0.8438 -13.37722,-1.54646 -18.38321,-1.56145 -14.88167,-0.0446 -51.02358,-9.67585 -79.97675,-21.31249 -14.90209,-5.98929 -27.6765,-10.30784 -28.38762,-9.59672 -0.71113,0.71114 -9.92605,28.75773 -20.47761,62.32581 l -19.18462,61.03283 8.07458,16.36536 c 7.61717,15.43826 9.06614,25.04307 3.77792,25.04307 -1.2922,0 -23.11482,-12.92252 -48.494768,-28.71669 -25.379933,-15.79418 -47.670807,-29.30207 -49.535248,-30.01751 -6.10381,-2.34228 -3.597295,-4.63167 10.208894,-9.32451 l 13.598759,-4.62236 20.073008,-41.13932 C 93.267226,738.76586 106.27063,711.6053 111.12351,701.03566 l 8.82345,-19.21753 -12.12312,-10.37193 C 67.724984,637.13963 39.020427,596.58984 19.275619,546.35764 -9.0014444,474.41879 -6.4438917,384.8364 26.042099,309.35171 36.420354,285.2367 63.572764,244.6387 84.32642,222.20553 c 18.47761,-19.97291 77.23977,-63.5262 85.70967,-63.5262 1.00673,0 -4.70764,4.86199 -12.69859,10.80443 -19.41255,14.43602 -47.57721,44.03581 -59.189123,62.20509 -15.005469,23.47921 -30.366953,58.10168 -36.42616,82.09907 -4.747761,18.80347 -5.566472,28.36999 -5.397964,63.07462 0.173054,35.63174 1.017453,43.98602 6.545659,64.75799 14.401045,54.11118 47.177738,105.11157 88.408098,137.56262 l 13.42824,10.56892 20.1656,-41.36168 c 11.09109,-22.74895 32.87015,-67.8378 48.39792,-100.19747 15.52778,-32.35967 28.55877,-58.50931 28.9578,-58.1103 0.399,0.39903 -14.31319,48.86582 -32.69376,107.70402 -18.38058,58.83818 -33.41923,107.96138 -33.41923,109.16269 0,2.48897 28.11038,13.88909 44.22575,17.93567 16.03958,4.02759 50.27381,9.82318 58.04766,9.82706 l 6.81823,0.003 0.0472,-31.61177 c 0.026,-17.38647 1.68159,-78.47158 3.67916,-135.74467 1.99756,-57.2731 3.77211,-120.31069 3.94344,-140.08355 0.39072,-45.09041 3.45707,-32.53461 5.75222,23.55387 3.60226,88.03002 13.76829,282.15067 14.83185,283.21422 0.39398,0.39399 9.88608,-1.02313 21.09359,-3.14916 43.08188,-8.17249 90.51447,-25.01194 88.34376,-31.36369 -0.60996,-1.78489 -6.82209,-21.65445 -13.80466,-44.1546 -20.80775,-67.04919 -49.05305,-157.08232 -50.94767,-162.39773 -6.21306,-17.43111 8.6548,11.60486 48.56044,94.8353 25.00833,52.15943 46.31747,94.83533 47.35367,94.83533 1.03619,0 10.66209,-8.69591 21.39088,-19.32424 76.32954,-75.61479 98.21198,-188.98651 55.56874,-287.89844 -17.14006,-39.7567 -53.28997,-85.29813 -83.95959,-105.77177 -20.95397,-13.98791 -21.42356,-15.22324 -1.93469,-5.08927 77.93419,40.52475 138.23842,126.07326 153.89693,218.3206 6.13179,36.1235 3.91269,90.2767 -5.12793,125.13734 -14.59196,56.26685 -42.79798,106.35078 -81.93509,145.48789 -8.80392,8.80392 -16.02751,16.82325 -16.0524,17.82074 -0.0248,0.99747 13.64252,30.49827 30.37209,65.55734 l 30.41738,63.74374 14.25627,5.66557 c 7.84096,3.11606 14.2195,6.22911 14.17451,6.91787 -0.18869,2.89073 -99.26665,62.18145 -101.55014,60.77018 -4.00479,-2.47512 -2.98088,-7.74159 4.87268,-25.06224 l 7.37366,-16.26226 -19.88041,-63.64248 c -10.93423,-35.00338 -20.36394,-65.06367 -20.95492,-66.80067 -0.77038,-2.26431 -5.82673,-0.76547 -17.86534,5.29583 -20.46618,10.30447 -63.27631,24.04261 -94.40815,30.29639 l -23.07152,4.6346 1.57928,16.17663 c 0.8686,8.89716 3.08452,30.12302 4.92426,47.16858 1.83973,17.04557 4.71002,45.01774 6.37844,62.16042 l 3.03345,31.16847 13.70571,7.26153 c 11.04304,5.85079 14.31529,9.06779 16.84352,16.55909 l 3.13782,9.29758 -26.7489,0 c -14.71191,0 -43.66195,0.73206 -64.33345,1.62679 -35.89106,1.55349 -37.58299,1.41384 -37.55069,-3.09921 z M -70.416054,687.57846 c -23.988774,-12.40506 -54.789056,-39.81387 -70.548726,-62.78044 -18.86348,-27.48979 -34.67529,-65.63587 -42.64991,-102.89321 -5.02791,-23.49044 -4.30557,-99.49066 1.18374,-124.5453 11.27351,-51.45519 35.3174,-106.26302 62.51431,-142.50083 39.228668,-52.2692 96.16177,-92.61557 147.903823,-104.81397 22.510827,-5.30701 27.508047,-4.83264 15.610356,1.48186 -19.207511,10.19409 -40.2452766,26.86832 -58.844132,46.63901 -65.131806,69.23551 -102.194317,179.25036 -91.143927,270.54799 7.358125,60.79246 31.734025,105.84288 70.014147,129.39688 6.505603,4.00295 11.828381,7.80338 11.828381,8.44543 0,0.64206 -3.765321,10.30881 -8.367375,21.4817 -9.764195,23.70548 -21.384881,57.80176 -21.384881,62.74542 0,4.60778 -1.638481,4.28197 -16.115806,-3.20454 z m 742.570274,-3.76979 c -3.45848,-13.48476 -12.51225,-40.52552 -20.72272,-61.8923 l -6.3473,-16.51811 5.47535,-3.37615 c 3.01145,-1.85689 8.72684,-5.02301 12.70087,-7.03577 14.24631,-7.21555 34.57017,-30.61924 45.52256,-52.421 13.63638,-27.14449 19.32876,-47.44604 23.20057,-82.74341 7.25072,-66.10116 -12.47622,-151.41442 -48.8742,-211.36682 -26.47001,-43.59973 -50.32392,-69.53221 -85.12655,-92.54438 -18.40383,-12.16893 -18.59483,-12.39969 -8.89047,-10.74098 40.1994,6.87103 88.86085,34.15363 123.59522,69.29506 24.9828,25.27556 37.45916,41.56689 53.16532,69.42194 84.00093,148.97632 52.56776,331.89195 -68.90861,400.99236 -19.70613,11.20961 -21.66221,11.12514 -24.79004,-1.07044 z M 291.56977,199.86427 c -34.04008,-14.87053 -44.10359,-55.87878 -20.68104,-84.27402 24.59134,-29.812185 72.74424,-23.276011 89.1215,12.09714 12.61383,27.24464 -0.80391,60.33104 -29.31099,72.27701 -10.03343,4.20455 -29.38908,4.15501 -39.12947,-0.10017 z"
       id="path4204"
       inkscape:connector-curvature="0" />
  </g>
</svg>
